<svg xmlns="http://www.w3.org/2000/svg" viewBox="0 0 232.5 196.8" preserveAspectRatio="xMidYMid meet"><g fill="#fff" stroke="none"><path d="M122.07,96.69L124.52,96.63L125.95,95.92L126.97,96.05L128.42,97.12L128.48,97.74L130.98,98.59L131.74,99.54L131.33,99.98L132.96,101.29L133.76,102.22L134.95,103.03L134.77,104.35L136.68,105.08L137.63,104.63L138.49,105.05L139.31,105.97L148.82,106.61L150.32,107.65L151.96,108.40L153.59,110.10L152.29,110.91L152.19,111.68L154.37,113.06L156.12,113.57L157.29,114.56L162.35,113.38L175.33,110.24L186.74,107.38L190.95,106.51L197.45,104.53L197.67,104.70L197.66,104.83L197.67,109.08L197.70,132.15L198.79,133.17L201.15,133.94L202.95,133.83L203.76,135.93L204.82,136.17L206.44,137.46L206.38,137.59L206.25,137.92L206.25,138.14L206.17,138.25L206.07,138.19L184.46,138.14L181.87,138.06L166.84,137.96L165.11,139.37L162.45,140.12L160.82,140.98L160.73,140.96L160.58,140.90L160.59,140.71L160.45,140.73L160.08,140.88L160.25,140.69L160.22,140.33L160.03,140.35L160.12,140.39L159.91,140.38L159.85,140.34L159.87,140.20L159.87,140.19L159.48,140.18L156.77,140.14L156.52,140.22L155.83,140.36L155.37,140.34L153.71,139.40L151.48,139.56L149.52,139.32L148.42,139.59L148.04,137.80L148.64,137.05L147.51,136.38L144.16,135.50L142.76,136.45L142.32,135.84L142.12,133.33L141.34,131.78L138.75,128.06L138.68,125.65L138.27,124.52L138.04,122.22L137.15,119.68L136.55,118.78L135.54,118.20L134.46,116.91L134.25,116.03L132.17,115.52L131.69,116.45L128.44,114.16L128.61,113.63L127.25,112.39L128.18,111.62L130.67,111.62L132.23,112.63L132.63,112.09L132.30,111.30L131.16,110.57L130.83,109.80L129.54,109.11L128.86,107.97L127.52,107.85L125.79,107.02L122.81,107.05L120.84,106.41L122.01,103.62L123.72,103.43L123.09,100.30L121.66,97.51L122.07,96.69ZM120.58,108.31L120.21,107.73L120.30,106.71L123.21,107.38L125.31,107.21L126.47,107.89L130.56,109.70L130.83,110.88L129.77,111.46L126.34,110.31L125.57,109.57L124.95,109.68L122.48,108.81L120.58,108.31Z"/><path d="M191.85,76.46L193.44,76.54L194.35,77.06L195.46,77.18L195.56,78.33L194.95,80.10L193.71,79.95L192.89,80.30L191.56,80.06L190.68,81.16L188.62,80.73L188.60,79.24L188.91,77.98L190.71,77.64L191.21,76.58L191.85,76.46ZM196.12,84.61L195.40,83.30L196.87,83.49L196.96,84.09L196.12,84.61ZM195.17,87.84L196.01,88.39L196.00,89.78L196.85,90.44L197.03,92.00L197.64,93.20L197.73,94.06L196.80,94.58L197.05,95.20L196.19,96.17L196.78,96.66L195.87,97.48L195.98,98.08L195.42,99.19L195.99,99.99L195.56,100.64L197.16,100.75L198.20,100.38L199.71,101.95L199.13,103.08L198.42,103.07L198.02,104.59L197.67,104.70L197.45,104.53L190.95,106.51L186.74,107.38L175.33,110.24L162.35,113.38L157.29,114.56L156.12,113.57L154.37,113.06L152.19,111.68L152.29,110.91L153.59,110.10L151.96,108.40L150.32,107.65L148.82,106.61L139.31,105.97L138.49,105.05L137.63,104.63L136.68,105.08L134.77,104.35L134.95,103.03L133.76,102.22L132.96,101.29L131.33,99.98L131.74,99.54L130.98,98.59L128.48,97.74L128.42,97.12L126.97,96.05L125.95,95.92L124.52,96.63L122.07,96.69L120.83,96.63L120.95,95.71L119.37,95.52L117.93,95.02L116.79,95.78L114.79,95.60L114.72,94.43L113.86,93.57L112.41,93.17L112.32,92.45L110.48,90.12L112.08,90.12L113.26,91.11L114.07,90.59L114.49,89.48L115.24,88.80L116.09,88.94L117.42,87.33L116.90,86.76L116.68,85.22L120.16,86.30L121.63,85.35L123.40,85.41L124.40,84.40L125.07,84.23L126.05,82.61L126.83,82.46L127.13,81.33L129.01,80.60L132.06,80.79L134.31,81.18L135.55,82.06L136.44,83.47L138.76,84.25L140.34,83.64L142.15,82.53L144.03,82.05L146.45,81.19L147.95,81.37L149.42,80.85L151.03,80.62L154.06,81.05L155.93,81.73L158.84,81.56L159.93,82.09L161.97,82.45L164.10,82.28L166.43,83.35L168.09,83.44L170.05,84.25L172.45,84.73L175.46,84.94L177.32,84.41L179.28,84.55L181.23,85.63L182.38,85.80L182.63,85.28L183.96,85.59L184.79,84.53L183.51,83.66L182.17,84.16L180.94,83.75L181.44,83.18L182.57,83.09L183.95,82.20L184.46,81.22L185.95,80.66L187.54,81.30L188.05,81.79L189.15,81.65L190.56,82.34L191.92,83.44L192.59,84.48L193.34,84.41L194.90,83.43L195.30,85.71L195.17,87.84ZM185.83,77.53L187.41,77.14L188.62,77.85L188.47,80.77L186.56,80.65L185.75,80.35L185.63,78.20L185.83,77.53ZM168.89,83.57L168.19,82.15L167.51,81.66L168.35,81.05L169.32,83.53L168.89,83.57ZM167.13,81.87L167.97,82.17L168.34,82.95L166.59,83.13L166.43,82.57L167.13,81.87Z"/><path d="M114.04,115.60L103.08,115.61L102.64,113.94L102.55,112.41L101.91,108.31L102.69,107.70L104.59,107.48L105.60,105.37L107.01,105.95L111.62,105.51L113.09,105.82L114.65,107.55L114.67,110.07L115.37,111.22L116.61,112.42L116.14,113.01L117.67,113.56L116.84,114.83L115.77,114.82L115.43,115.58L114.04,115.60ZM116.33,105.00L115.46,103.76L116.51,103.32L117.08,104.17L116.33,105.00Z"/><path d="M164.78,32.55L165.01,32.52L165.76,32.62L166.70,32.69L166.85,32.67L167.16,32.58L168.43,32.75L170.11,33.45L172.03,33.82L173.89,33.73L174.64,34.09L175.01,34.10L175.40,33.43L176.30,33.20L176.95,33.81L178.28,33.39L179.51,32.65L181.15,32.94L182.16,32.63L183.85,34.11L183.79,37.66L184.00,37.66L183.99,41.37L183.97,49.15L184.00,55.05L194.04,55.12L193.73,55.29L192.92,56.68L192.84,56.89L192.82,57.81L193.29,58.59L192.97,59.41L193.17,61.18L193.12,64.38L192.26,66.13L192.02,66.67L191.83,66.85L191.23,67.07L190.79,67.10L190.18,66.99L188.78,67.77L187.13,68.22L185.33,70.14L184.80,70.46L184.16,73.11L182.71,75.25L182.19,75.06L179.46,77.11L173.17,80.16L169.81,79.11L169.04,78.73L166.88,79.25L166.48,80.16L165.23,80.83L164.06,81.06L162.74,80.49L162.22,79.56L162.09,78.10L160.37,78.31L158.28,78.83L157.31,78.71L156.07,79.09L154.69,77.82L153.74,77.82L152.06,77.03L152.23,76.54L154.09,75.91L154.94,75.07L154.08,73.47L153.04,72.49L151.41,72.67L148.77,72.70L147.15,73.20L146.95,74.90L146.03,76.36L143.80,78.10L141.76,80.02L140.23,82.08L138.11,82.17L137.22,81.36L135.91,80.64L134.55,79.36L133.51,80.36L132.71,79.63L130.94,79.94L129.36,79.04L129.17,78.60L127.51,79.56L125.75,79.80L124.96,78.05L123.73,76.67L122.27,75.57L119.55,74.12L117.64,73.48L115.18,72.42L113.52,72.09L112.67,70.86L113.02,70.88L115.34,70.84L124.17,70.91L133.83,70.92L133.92,69.95L133.01,69.55L131.86,68.45L131.81,67.58L132.78,66.80L132.80,65.60L133.97,65.06L133.77,63.38L132.83,61.96L133.85,61.35L133.69,60.58L132.07,60.51L131.68,60.19L132.14,59.14L134.53,59.26L133.02,57.13L133.46,56.41L132.77,54.85L146.89,54.83L147.23,53.46L146.53,52.45L146.03,50.33L145.60,50.05L144.45,47.96L142.41,45.96L141.90,45.03L140.85,44.01L140.71,43.18L141.01,41.66L142.05,38.94L142.88,37.34L142.74,35.59L143.04,35.09L146.52,35.01L147.62,34.68L149.21,35.85L150.12,36.99L151.47,37.50L152.21,37.52L153.77,36.38L154.81,36.06L157.01,34.14L158.62,33.71L159.34,33.09L160.83,33.45L162.47,33.47L163.99,33.08L164.78,32.55ZM153.35,78.27L153.24,78.86L151.68,78.96L150.96,77.32L153.00,77.89L153.35,78.27ZM162.24,79.95L163.51,80.70L163.54,81.38L160.42,81.27L162.24,79.95ZM180.26,78.14L179.76,77.88L181.88,76.34L182.30,77.34L181.85,77.97L180.26,78.14Z"/><path d="M28.25,5.58L39.74,5.51L39.70,2.48L45.24,2.58L45.27,1.18L50.60,1.13L52.67,1.30L59.11,1.38L71.21,1.41L72.50,2.76L73.48,2.52L73.79,2.54L74.23,3.38L75.35,3.74L77.31,5.37L78.49,6.01L78.54,7.64L79.83,8.66L80.91,10.00L81.36,11.07L82.51,11.54L82.13,12.20L82.33,13.22L83.27,13.54L84.18,15.33L86.13,15.80L88.62,15.73L88.71,15.81L89.52,17.02L89.42,17.52L90.82,18.98L90.63,19.67L91.00,19.99L90.95,21.44L89.96,22.73L90.54,24.12L88.90,26.21L88.72,26.57L90.32,28.52L90.16,29.44L91.33,29.85L91.28,30.39L93.04,30.55L94.86,31.51L95.97,32.39L96.38,33.43L96.50,33.53L98.09,33.86L98.98,34.43L98.88,36.80L100.23,38.57L100.41,39.46L101.74,39.34L102.57,39.98L102.64,40.70L105.07,41.15L105.37,42.12L104.23,42.98L103.82,44.07L106.31,45.93L106.78,47.38L108.58,48.49L107.61,49.70L108.65,50.52L109.42,50.61L110.69,51.55L111.35,52.59L112.83,54.21L113.91,55.95L113.00,56.46L113.28,57.47L112.91,58.28L113.67,59.22L114.55,59.00L114.38,60.35L115.91,61.97L116.69,61.72L117.37,63.37L117.47,65.48L118.33,66.37L117.31,66.92L117.63,68.03L116.58,68.08L116.41,68.97L116.75,70.34L116.61,70.55L116.25,70.65L113.68,70.28L112.69,70.86L112.67,70.86L113.52,72.09L112.87,72.95L110.42,73.90L109.34,74.69L108.14,74.66L105.28,74.99L104.01,75.36L103.31,75.25L103.08,75.12L102.68,74.76L102.57,74.61L102.32,74.12L102.05,73.20L100.97,72.07L99.00,70.62L97.57,70.41L97.44,69.56L96.72,68.51L96.86,68.20L96.58,68.04L95.55,68.07L94.11,67.55L93.03,68.33L90.80,68.19L90.55,68.54L88.44,68.31L86.65,67.45L85.31,67.46L84.72,67.00L83.23,66.81L81.07,65.71L79.38,65.72L63.19,54.73L62.57,54.59L62.68,54.40L62.26,54.30L62.12,54.39L61.72,54.43L61.68,55.08L59.83,55.46L58.78,55.30L58.43,55.24L57.43,54.86L56.85,54.71L56.46,55.34L55.21,55.31L53.97,55.78L53.85,55.85L54.01,56.42L53.09,56.85L50.93,55.38L49.38,54.55L49.55,54.16L48.39,53.04L47.85,53.81L47.70,54.98L46.88,56.00L45.86,54.44L46.49,52.96L46.61,50.77L45.24,48.58L44.81,47.37L43.73,47.04L43.52,45.77L42.48,44.40L41.90,44.27L40.65,41.71L40.04,41.01L39.15,40.81L36.98,39.12L34.18,37.49L31.89,36.52L30.17,36.12L29.80,35.48L28.25,35.41L25.45,33.15L24.79,32.43L22.94,31.64L22.30,30.80L20.17,29.87L19.45,29.22L19.54,28.25L19.03,27.41L16.17,25.70L15.91,24.82L13.50,21.61L12.52,20.98L12.32,20.15L11.39,19.07L10.18,18.46L10.02,17.46L9.28,16.50L8.39,16.01L7.09,14.62L5.87,14.25L4.49,13.38L4.10,12.80L2.29,12.37L0.94,11.50L0.00,9.58L0.06,9.58L0.52,9.98L1.55,10.07L1.70,9.69L1.77,9.61L2.29,9.69L3.66,8.56L8.98,8.75L16.54,8.72L16.53,5.76L23.90,5.70L26.19,5.58L28.25,5.58Z"/><path d="M111.33,100.11L111.38,100.36L111.49,101.07L109.89,101.07L108.93,100.40L110.34,99.21L111.33,100.11ZM106.10,103.22L105.50,103.29L105.52,103.30L105.45,103.34L105.49,103.54L105.49,103.74L105.45,103.87L105.34,103.85L105.08,103.85L104.77,103.80L104.19,103.87L104.12,103.93L104.01,104.05L103.92,104.08L103.89,104.15L103.82,104.18L103.47,104.19L103.39,104.25L103.42,104.43L103.35,104.42L103.22,104.25L103.16,104.29L103.09,104.33L103.03,104.30L102.95,104.32L102.90,104.26L102.83,104.21L102.85,104.14L102.16,103.99L100.99,104.00L100.80,104.23L100.81,104.30L100.77,104.31L100.75,104.31L98.49,102.82L97.03,101.18L94.49,100.28L93.49,99.13L91.58,98.73L89.13,96.71L87.80,96.10L85.68,93.92L83.65,92.98L85.13,95.80L83.61,96.54L83.20,97.04L80.64,96.04L79.70,93.87L77.90,92.89L76.75,92.65L76.25,92.03L75.16,91.66L74.15,89.40L73.55,88.68L72.15,87.92L71.25,86.79L67.71,84.75L65.04,83.87L62.76,83.47L62.04,83.01L60.22,82.90L59.61,81.82L60.68,80.03L58.94,80.24L58.30,80.62L58.44,81.82L59.39,83.26L57.29,83.68L55.51,85.05L54.31,86.97L51.59,87.02L53.74,83.11L57.31,75.12L58.33,71.91L58.41,70.01L57.79,68.63L56.71,68.11L56.71,66.50L55.30,65.01L55.20,64.12L54.18,63.16L54.63,62.63L57.21,65.17L58.21,65.81L59.06,67.01L60.36,68.01L61.28,69.54L62.46,70.49L62.97,71.86L63.72,72.36L65.12,74.09L66.20,74.79L69.43,77.71L70.83,77.35L68.28,75.08L66.89,74.50L67.07,73.69L66.18,72.52L65.16,71.95L63.26,69.88L63.01,69.09L61.60,67.37L61.20,66.32L60.20,65.19L58.81,64.39L57.96,64.50L58.11,63.40L56.31,63.23L56.62,61.37L55.53,59.37L54.71,59.12L53.09,56.85L54.01,56.42L53.85,55.85L53.97,55.78L55.21,55.31L56.46,55.34L56.85,54.71L57.43,54.86L58.43,55.24L58.78,55.30L59.83,55.46L61.68,55.08L61.72,54.43L62.12,54.39L62.26,54.30L62.68,54.40L62.57,54.59L63.19,54.73L79.38,65.72L81.07,65.71L83.23,66.81L84.72,67.00L85.31,67.46L86.65,67.45L88.44,68.31L90.55,68.54L90.80,68.19L93.03,68.33L94.11,67.55L95.55,68.07L96.58,68.04L96.86,68.20L96.72,68.51L97.44,69.56L97.57,70.41L99.00,70.62L100.97,72.07L102.05,73.20L102.32,74.12L102.57,74.61L102.68,74.76L103.08,75.12L103.31,75.25L104.01,75.36L104.53,75.90L103.86,77.16L104.48,77.33L104.94,79.22L103.54,81.60L103.52,82.27L102.70,83.60L102.44,84.87L104.53,84.99L105.10,85.52L106.77,85.98L108.66,87.86L107.77,88.42L106.82,87.96L106.10,88.19L105.71,89.01L103.85,89.42L104.38,89.98L104.66,91.62L105.39,92.05L104.46,92.72L102.92,92.08L102.80,92.73L103.32,93.89L105.90,94.90L106.14,96.10L107.61,97.02L108.43,97.02L109.57,98.27L108.26,99.22L106.29,99.36L106.01,97.91L104.50,96.89L103.53,97.06L103.49,98.67L102.13,97.55L102.13,98.64L103.32,99.27L104.08,100.10L105.52,100.87L105.39,101.68L106.10,103.22Z"/><path d="M103.08,115.61L114.04,115.60L114.59,118.59L115.26,118.70L115.15,120.15L115.67,120.70L115.33,121.62L114.17,121.68L113.73,122.54L115.49,123.28L116.54,124.27L117.88,124.93L117.51,125.51L116.35,125.00L115.56,125.83L117.63,127.20L121.27,127.22L122.72,128.84L125.04,128.96L126.01,129.41L127.10,129.04L128.18,129.67L128.86,130.71L130.84,131.71L130.10,132.95L128.88,133.52L128.45,134.37L128.94,135.65L131.31,135.97L132.25,135.68L133.10,134.24L133.76,134.07L134.92,134.72L136.82,136.53L139.39,135.71L140.37,136.12L140.97,137.86L141.02,139.04L141.78,139.82L141.76,139.85L141.08,140.69L141.16,140.95L141.15,141.05L140.96,141.14L140.91,141.14L140.57,141.22L140.54,141.24L140.51,141.24L140.21,141.08L140.18,141.02L140.18,141.04L140.07,141.01L139.76,141.02L139.49,140.94L138.19,140.72L137.09,141.04L134.32,143.33L134.60,144.95L133.91,145.63L134.41,147.30L134.32,147.90L133.30,149.23L133.32,150.75L133.64,151.19L133.77,151.46L134.23,152.08L135.08,153.13L134.71,154.87L135.13,155.47L135.25,155.44L135.40,155.29L135.60,155.19L135.92,155.15L136.32,155.30L137.16,156.00L137.40,157.06L138.14,157.82L138.09,164.88L129.11,164.91L129.10,167.42L126.48,167.44L124.51,167.75L121.60,167.73L122.19,171.67L124.43,175.08L124.07,175.69L122.76,174.79L122.05,174.62L120.59,175.09L119.49,174.28L119.50,172.73L118.64,171.86L117.41,171.45L116.86,169.41L115.57,168.37L113.71,167.91L112.89,166.87L112.48,163.89L111.76,162.97L111.53,161.56L111.89,160.89L112.49,158.44L113.27,152.45L113.32,150.92L112.54,150.00L112.48,148.88L111.07,147.18L110.96,146.23L110.26,145.21L108.91,142.65L108.81,140.28L108.41,138.75L107.52,137.31L106.22,136.32L104.53,136.10L103.48,136.43L102.18,135.11L101.57,134.02L101.39,132.71L101.83,131.84L101.95,130.07L101.56,128.73L101.37,126.94L103.01,126.65L103.54,125.02L103.92,122.75L103.91,120.11L103.74,118.22L103.08,115.61ZM133.45,132.63L133.79,133.37L132.37,134.60L131.93,135.47L131.16,135.88L129.01,135.52L128.72,134.66L129.14,133.70L130.40,133.07L130.96,132.17L133.45,132.63Z"/><path d="M168.46,176.52L168.34,176.51L167.18,176.49L164.89,175.64L162.30,175.09L160.94,174.30L157.99,173.52L156.09,172.25L154.89,172.23L154.85,172.19L154.26,172.00L153.34,170.54L152.30,170.28L150.77,169.19L150.10,167.81L147.86,165.16L146.75,165.38L145.49,164.10L144.39,164.10L144.03,163.50L142.94,163.00L142.81,162.35L140.97,160.45L140.53,160.50L138.53,158.88L138.33,158.16L138.21,157.97L138.15,157.86L137.40,157.06L137.16,156.00L136.32,155.30L135.92,155.15L135.60,155.19L135.40,155.29L135.25,155.44L135.13,155.47L134.71,154.87L135.08,153.13L134.23,152.08L133.77,151.46L133.64,151.19L133.32,150.75L133.30,149.23L134.32,147.90L134.41,147.30L133.91,145.63L134.60,144.95L134.32,143.33L137.09,141.04L138.19,140.72L139.49,140.94L140.03,140.99L140.16,141.03L140.74,141.07L141.00,140.30L141.63,139.91L143.26,140.22L143.99,141.10L146.59,141.43L146.99,141.87L149.44,141.29L150.03,140.40L153.70,139.94L155.93,140.48L157.19,140.15L158.79,141.13L160.82,140.98L162.45,140.12L165.11,139.37L166.84,137.96L181.87,138.06L184.46,138.14L206.07,138.19L206.10,138.21L204.69,138.86L204.94,139.82L206.06,140.75L206.96,141.04L207.18,142.54L206.11,144.09L207.73,145.75L207.70,146.87L208.55,147.26L209.76,146.81L212.11,147.48L212.46,148.36L211.78,148.83L211.00,150.54L211.29,151.95L212.45,153.36L212.17,153.98L212.79,155.33L210.79,156.79L209.68,157.23L209.01,156.76L207.97,158.02L207.79,161.48L209.19,163.31L211.10,164.19L212.20,166.93L212.90,170.83L213.37,171.34L215.01,171.28L214.91,169.87L217.05,168.07L218.50,168.31L218.70,168.43L219.13,169.01L220.53,169.83L221.96,169.63L223.45,169.85L225.14,168.06L225.83,168.55L227.16,170.49L229.60,170.67L229.70,170.76L230.23,172.57L230.88,173.11L231.09,173.38L231.05,173.57L231.63,174.12L230.31,175.97L230.32,176.73L229.06,177.15L230.90,178.53L231.07,179.04L232.40,179.60L232.54,180.22L230.79,181.22L230.92,182.45L228.91,183.22L228.77,183.87L230.03,185.25L230.05,186.49L228.85,187.13L228.78,188.12L230.15,189.54L231.83,190.30L218.87,190.37L211.54,190.37L208.63,188.13L208.31,187.53L208.11,187.64L207.00,187.94L206.37,188.65L204.47,188.11L203.19,189.26L202.19,190.49L201.99,191.91L199.30,193.87L199.34,194.37L197.73,195.23L197.47,195.51L197.37,196.00L197.36,196.68L197.08,196.80L195.40,196.75L195.23,196.51L195.25,194.50L194.33,193.81L192.65,193.82L190.89,192.38L189.66,192.52L188.79,193.19L188.06,192.25L187.96,191.37L187.04,191.24L186.94,190.11L185.54,189.64L184.04,189.60L183.52,188.93L183.83,187.91L182.84,187.80L181.58,186.87L180.40,186.64L181.49,185.67L179.75,184.89L180.58,184.15L179.39,183.66L177.96,181.82L175.21,180.73L174.76,180.23L172.45,179.49L171.54,178.05L169.03,176.97L168.94,176.92L168.46,176.52ZM160.12,140.39L160.03,140.35L160.22,140.33L160.25,140.69L160.08,140.88L160.12,140.39ZM160.45,140.73L160.59,140.71L160.58,140.90L160.73,140.96L160.45,140.73Z"/><path d="M96.38,33.43L95.97,32.39L94.86,31.51L93.04,30.55L91.28,30.39L91.33,29.85L90.16,29.44L90.32,28.52L88.72,26.57L88.90,26.21L90.54,24.12L89.96,22.73L90.95,21.44L91.00,19.99L90.63,19.67L106.98,15.90L112.47,8.79L112.14,7.84L113.57,6.02L115.43,6.21L116.02,4.72L115.17,3.04L112.98,0.86L113.86,0.00L114.02,0.13L114.85,1.18L116.21,1.96L118.50,2.82L119.01,2.30L120.75,1.83L121.83,2.48L124.39,2.50L124.67,2.62L125.97,5.48L127.40,7.43L128.17,9.65L128.36,10.90L129.22,12.11L130.17,12.93L131.06,15.97L130.95,16.43L133.16,17.57L133.16,17.78L133.02,18.71L133.53,19.50L135.04,20.71L135.75,20.55L136.72,21.16L136.83,21.39L137.13,22.01L137.07,22.11L137.25,22.89L136.32,23.46L136.53,24.49L137.27,24.49L137.61,24.16L137.87,24.10L138.22,23.90L138.28,23.98L138.23,24.14L139.37,25.44L140.55,28.05L141.96,32.70L142.21,34.02L143.04,35.09L142.74,35.59L142.88,37.34L142.05,38.94L141.01,41.66L140.71,43.18L140.85,44.01L141.90,45.03L142.41,45.96L144.45,47.96L145.60,50.05L146.03,50.33L146.53,52.45L147.23,53.46L146.89,54.83L132.77,54.85L133.46,56.41L133.02,57.13L134.53,59.26L132.14,59.14L131.68,60.19L132.07,60.51L133.69,60.58L133.85,61.35L132.83,61.96L133.77,63.38L133.97,65.06L132.80,65.60L132.78,66.80L131.81,67.58L131.86,68.45L133.01,69.55L133.92,69.95L133.83,70.92L124.17,70.91L115.34,70.84L113.02,70.88L112.69,70.86L113.68,70.28L116.25,70.65L116.61,70.55L116.75,70.34L116.41,68.97L116.58,68.08L117.63,68.03L117.31,66.92L118.33,66.37L117.47,65.48L117.37,63.37L116.69,61.72L115.91,61.97L114.38,60.35L114.55,59.00L113.67,59.22L112.91,58.28L113.28,57.47L113.00,56.46L113.91,55.95L112.83,54.21L111.35,52.59L110.69,51.55L109.42,50.61L108.65,50.52L107.61,49.70L108.58,48.49L106.78,47.38L106.31,45.93L103.82,44.07L104.23,42.98L105.37,42.12L105.07,41.15L102.64,40.70L102.57,39.98L101.74,39.34L100.41,39.46L100.23,38.57L98.88,36.80L98.98,34.43L98.09,33.86L96.50,33.53L96.38,33.43Z"/></g></svg>