<svg xmlns="http://www.w3.org/2000/svg" viewBox="0 0 105 95" preserveAspectRatio="xMidYMid meet"><g fill="#fff" stroke="none"><path d="M12.7,-0.1L21.2,-0.1L34.6,0.0L45.0,0.0L45.0,17.4L45.0,30.0L57.9,39.0L70.0,47.8L79.6,55.0L86.5,60.3L98.7,70.0L98.7,71.2L100.3,72.9L101.7,75.5L103.6,76.9L102.4,78.3L100.8,78.9L99.6,80.7L100.0,83.0L99.8,84.5L97.7,85.9L98.4,89.7L99.8,89.7L100.3,91.6L99.8,92.4L97.8,92.8L84.5,93.8L73.7,94.6L72.5,93.3L72.5,91.2L71.7,88.8L70.3,87.0L67.2,84.6L63.2,82.4L62.4,83.0L60.9,82.6L61.1,81.6L59.3,79.6L57.0,80.0L52.8,78.5L52.2,77.3L49.4,75.8L46.2,75.9L43.6,75.2L40.3,75.5L38.5,74.2L38.9,71.4L38.3,71.0L38.7,69.0L36.1,67.5L35.9,65.5L35.0,65.4L33.3,63.6L32.2,63.3L31.7,62.2L27.8,58.0L26.0,56.8L25.6,53.6L26.4,53.9L27.1,52.0L25.7,50.2L23.9,50.4L21.6,48.8L20.8,47.6L21.0,46.4L19.8,44.8L19.8,42.2L21.7,42.2L20.9,38.5L20.1,38.9L20.0,40.7L18.0,41.1L15.6,39.7L15.2,37.3L13.7,35.5L11.7,34.3L10.6,33.0L7.6,30.4L8.1,29.7L6.8,26.3L7.4,24.5L6.5,21.7L3.9,18.9L1.4,17.4L0.9,15.6L3.4,11.2L3.9,9.7L3.4,8.6L4.3,5.6L3.5,2.8L2.4,2.2L2.9,-0.0L12.7,-0.1Z"/></g></svg>