<svg xmlns="http://www.w3.org/2000/svg" viewBox="0 0 585 255" preserveAspectRatio="xMidYMid meet"><g class="map-land"><path d="M376.4,145.0L393.9,145.2L395.7,153.8L398.2,166.4L399.3,169.2L400.4,170.8L400.0,171.8L401.1,172.4L399.4,173.6L399.5,174.9L398.6,176.6L399.6,179.6L398.9,182.2L400.0,185.0L395.0,185.0L374.0,185.0L373.7,186.3L375.9,188.3L375.5,189.9L376.3,190.7L374.8,192.2L373.4,192.5L370.9,190.9L370.7,188.4L369.9,188.1L369.0,190.0L368.6,191.8L366.1,191.3L365.3,176.0L367.6,157.0L369.0,146.1L368.0,145.0L376.4,145.0Z"/><path d="M159.6,125.0L159.5,181.7L139.3,181.7L127.5,178.0L101.8,170.1L102.8,167.8L104.8,167.4L105.3,166.6L104.8,164.7L103.4,164.7L102.7,160.9L104.8,159.5L105.0,158.0L104.6,155.7L105.8,153.9L107.4,153.3L108.6,151.9L106.7,150.5L105.3,147.9L103.7,146.2L103.7,145.0L104.3,143.6L104.0,141.8L103.2,139.8L102.6,134.0L106.3,133.6L107.5,134.8L108.5,134.7L109.5,133.0L109.5,125.0L145.0,124.9L159.6,125.0Z"/><path d="M305.3,130.0L348.5,130.0L349.4,132.0L347.8,133.2L346.2,135.0L352.7,135.0L352.4,136.9L350.9,137.4L350.6,139.0L348.7,140.6L348.9,143.0L347.9,144.8L346.9,145.0L347.5,145.9L345.9,146.7L345.2,148.4L344.1,148.8L344.3,150.8L342.5,151.3L342.6,152.0L340.5,153.6L341.1,154.7L339.3,156.3L337.7,159.4L339.4,160.7L338.6,161.5L339.1,163.6L338.3,165.0L313.9,164.8L309.6,164.8L309.6,159.5L308.2,159.1L306.2,159.6L305.2,158.6L305.7,141.0L303.8,130.0L305.3,130.0Z"/><path d="M17.7,74.9L26.2,74.9L39.6,75.0L50.0,75.0L50.0,92.4L50.0,105.0L62.9,114.0L75.0,122.8L84.6,130.0L91.5,135.3L103.7,145.0L103.7,146.2L105.3,147.9L106.7,150.5L108.6,151.9L107.4,153.3L105.8,153.9L104.6,155.7L105.0,158.0L104.8,159.5L102.7,160.9L103.4,164.7L104.8,164.7L105.3,166.6L104.8,167.4L102.8,167.8L89.5,168.8L78.7,169.6L77.5,168.3L77.5,166.2L76.7,163.8L75.3,162.0L72.2,159.6L68.2,157.4L67.4,158.0L65.9,157.6L66.1,156.6L64.3,154.6L62.0,155.0L57.8,153.5L57.2,152.3L54.4,150.8L51.2,150.9L48.6,150.2L45.3,150.5L43.5,149.2L43.9,146.4L43.3,146.0L43.7,144.0L41.1,142.5L40.9,140.5L40.0,140.4L38.3,138.6L37.2,138.3L36.7,137.2L32.8,133.0L31.0,131.8L30.6,128.6L31.4,128.9L32.1,127.0L30.7,125.2L28.9,125.4L26.6,123.8L25.8,122.6L26.0,121.4L24.8,119.8L24.8,117.2L26.7,117.2L25.9,113.5L25.1,113.9L25.0,115.7L23.0,116.1L20.6,114.7L20.2,112.3L18.7,110.5L16.7,109.3L15.6,108.0L12.6,105.4L13.1,104.7L11.8,101.3L12.4,99.5L11.5,96.7L8.9,93.9L6.4,92.4L5.9,90.6L8.4,86.2L8.9,84.7L8.4,83.6L9.3,80.6L8.5,77.8L7.4,77.2L7.9,75.0L17.7,74.9Z"/><path d="M170.8,85.0L192.7,85.0L209.5,85.0L229.5,85.0L229.5,95.0L229.6,125.1L220.0,125.0L206.6,125.1L181.3,125.1L175.8,125.0L159.6,125.0L159.6,113.3L159.4,112.2L159.5,103.7L159.5,85.0L170.8,85.0Z"/><path d="M519.5,74.6L532.0,74.8L532.0,74.9L532.0,80.9L531.4,81.8L530.5,81.6L526.1,82.4L520.9,82.2L518.7,83.5L516.3,84.0L513.4,85.1L512.7,84.0L515.2,82.9L514.5,82.1L515.1,74.5L519.5,74.6Z"/><path d="M495.9,97.0L494.9,98.2L493.9,98.8L494.1,100.4L495.6,101.9L496.0,104.3L498.1,106.9L499.1,107.0L499.5,110.5L493.1,110.4L492.1,97.8L493.8,96.7L495.9,97.0Z"/><path d="M479.6,105.1L480.9,106.0L479.6,107.1L478.8,105.7L479.6,105.1Z"/><path d="M395.0,185.0L400.0,185.0L401.3,187.9L415.0,188.5L427.8,189.3L428.3,191.4L429.5,191.4L430.0,189.4L429.6,187.5L430.5,186.7L432.8,187.5L435.6,187.9L436.2,192.3L437.4,197.1L440.3,203.5L444.8,210.4L444.1,210.9L444.3,214.1L446.2,217.6L449.1,224.8L449.7,227.0L449.6,229.3L448.5,237.6L447.6,237.8L446.6,240.3L447.0,241.2L445.0,243.0L444.3,242.6L442.4,243.4L439.2,243.8L438.3,242.8L438.7,241.2L436.5,236.8L434.7,236.0L433.2,236.6L432.0,234.1L431.7,232.1L429.6,229.8L429.1,228.3L429.4,226.2L428.3,225.8L428.5,227.1L427.5,227.4L424.3,222.0L423.1,220.6L426.1,216.6L424.1,216.8L422.8,218.1L421.5,216.1L423.2,210.7L423.6,206.1L422.4,205.0L422.0,203.5L420.1,203.2L417.8,200.8L416.0,199.8L415.9,198.3L414.6,197.8L413.6,196.1L409.8,194.0L406.4,194.4L406.6,196.0L405.5,195.7L401.3,197.6L396.9,198.0L397.0,196.9L396.0,195.6L390.8,192.6L387.0,191.4L383.7,191.0L380.9,191.3L374.8,192.2L376.3,190.7L375.5,189.9L375.9,188.3L373.7,186.3L374.0,185.0L395.0,185.0Z"/><path d="M418.9,145.0L416.8,147.1L416.6,148.2L419.9,150.3L421.0,150.1L422.5,152.3L422.9,153.5L424.4,155.6L426.7,156.8L428.1,158.7L430.7,160.4L430.6,161.5L432.4,163.4L435.1,164.9L435.7,166.6L435.8,168.7L437.2,169.4L438.8,172.1L438.8,173.8L441.1,174.7L438.7,178.1L438.2,179.8L437.2,181.4L437.1,182.9L436.0,183.7L435.6,187.9L432.8,187.5L430.5,186.7L429.6,187.5L430.0,189.4L429.5,191.4L428.3,191.4L427.8,189.3L415.0,188.5L401.3,187.9L400.0,185.0L398.9,182.2L399.6,179.6L398.6,176.6L399.5,174.9L399.4,173.6L401.1,172.4L400.0,171.8L400.4,170.8L399.3,169.2L398.2,166.4L395.7,153.8L393.9,145.2L406.8,145.1L413.8,145.2L418.9,145.0Z"/><path d="M89.5,5.0L89.5,15.2L92.8,18.0L92.8,20.8L94.7,22.0L96.8,22.4L97.0,23.1L100.7,25.8L101.1,26.9L103.8,27.9L103.9,28.6L106.8,28.5L105.4,32.3L105.1,34.6L106.1,36.2L104.3,37.3L105.0,38.3L104.5,39.4L106.7,40.4L109.1,39.1L110.1,38.0L111.9,39.0L111.7,39.8L112.6,41.7L114.3,43.7L115.5,44.4L115.4,46.3L116.6,47.2L118.7,47.3L120.0,50.5L121.1,51.1L122.2,50.1L125.3,50.2L127.6,49.3L129.0,49.8L131.3,49.4L131.8,49.9L133.8,49.5L136.1,47.4L137.7,49.2L139.5,50.2L139.5,75.0L128.4,75.0L109.6,75.0L79.7,75.0L79.7,56.7L81.0,53.4L80.2,52.6L78.3,52.4L77.6,51.1L79.6,47.5L80.7,47.2L81.7,45.7L81.5,44.8L82.7,43.6L83.3,41.8L85.4,38.8L84.5,37.5L82.2,36.8L80.8,35.1L80.8,33.3L79.4,31.6L79.6,30.7L79.6,17.4L79.7,5.0L89.5,5.0Z"/><path d="M343.6,69.9L362.1,70.1L372.0,70.1L371.6,72.0L373.2,74.2L374.8,77.9L374.7,101.5L373.6,103.3L374.9,105.4L375.0,107.2L373.8,108.6L373.4,109.9L371.6,112.1L370.5,112.2L370.8,113.5L370.0,114.0L369.4,116.3L369.7,117.0L368.4,118.4L369.3,120.2L365.2,121.1L364.9,122.1L365.8,123.5L364.5,124.3L360.9,122.8L359.7,122.9L358.2,124.6L358.7,125.2L357.1,125.1L354.8,122.2L355.6,121.5L354.8,119.6L354.8,118.1L351.6,116.0L350.5,116.2L349.4,114.9L346.4,112.8L346.5,111.3L348.2,108.7L347.9,107.7L348.9,106.5L347.5,105.8L345.3,105.4L344.1,106.3L343.4,105.7L342.7,102.4L339.4,100.3L336.3,97.7L335.1,94.7L334.9,92.6L335.8,91.2L336.0,89.4L338.8,88.3L339.1,86.8L340.4,85.8L340.5,84.0L338.9,82.6L339.5,80.9L343.4,80.4L346.6,79.1L346.9,77.6L348.2,76.9L348.6,75.0L348.3,73.7L346.1,72.7L345.8,71.7L343.6,69.9Z"/><path d="M390.1,77.4L401.9,77.4L401.9,78.1L402.0,90.0L401.8,104.0L401.1,104.4L401.9,107.1L400.1,107.2L398.3,108.1L395.7,107.7L395.8,109.7L394.1,110.5L393.4,111.7L391.7,112.2L390.8,114.8L389.6,115.4L387.4,114.5L387.0,113.3L384.8,114.6L385.0,115.7L382.7,116.1L382.0,115.1L379.5,116.1L378.7,117.1L376.2,115.6L374.9,116.0L374.0,115.2L373.2,116.0L370.7,116.1L369.7,117.0L369.4,116.3L370.0,114.0L370.8,113.5L370.5,112.2L371.6,112.1L373.4,109.9L373.8,108.6L375.0,107.2L374.9,105.4L373.6,103.3L374.7,101.5L374.8,77.9L375.7,78.6L378.8,78.6L381.8,77.4L390.1,77.4Z"/><path d="M336.3,60.0L337.8,60.0L338.0,61.5L339.4,62.5L338.2,63.7L338.6,65.9L339.3,67.5L342.9,68.6L343.6,69.9L345.8,71.7L346.1,72.7L348.3,73.7L348.6,75.0L348.2,76.9L346.9,77.6L346.6,79.1L343.4,80.4L339.5,80.9L338.9,82.6L340.5,84.0L340.4,85.8L339.1,86.8L338.8,88.3L336.0,89.4L335.8,91.2L334.7,90.9L332.7,88.8L331.7,88.9L317.4,89.2L303.7,89.3L292.3,89.1L291.2,87.8L291.7,85.2L290.7,83.0L290.8,80.5L289.0,79.6L288.8,78.2L289.4,77.0L288.7,75.3L287.4,74.6L285.5,70.1L283.7,67.9L284.6,66.4L284.9,64.5L285.7,63.8L284.4,62.8L284.7,61.0L284.2,60.2L285.5,60.0L336.3,60.0Z"/><path d="M230.9,95.0L296.9,95.0L297.9,95.9L301.2,96.7L298.9,99.6L300.2,100.6L301.8,102.9L303.9,103.4L303.8,125.0L249.1,125.0L229.6,125.1L229.5,95.0L230.9,95.0Z"/><path d="M411.0,107.3L413.2,108.7L414.8,108.0L418.6,108.7L419.7,107.7L421.1,107.4L421.5,109.1L422.7,109.4L424.1,110.8L423.8,113.8L425.0,115.7L426.6,117.2L427.1,118.3L429.0,119.5L430.3,119.6L426.5,122.3L422.8,123.8L422.8,124.6L421.3,125.2L421.2,126.1L419.3,126.5L418.6,127.6L413.3,129.0L413.1,129.2L404.6,129.1L397.1,128.7L395.1,128.8L384.1,128.4L371.5,128.7L369.3,128.2L369.5,130.0L357.0,129.9L355.8,130.0L356.4,128.8L357.8,129.2L358.7,125.2L358.2,124.6L359.7,122.9L360.9,122.8L364.5,124.3L365.8,123.5L364.9,122.1L365.2,121.1L369.3,120.2L368.4,118.4L369.7,117.0L370.7,116.1L373.2,116.0L374.0,115.2L374.9,116.0L376.2,115.6L378.7,117.1L379.5,116.1L382.0,115.1L382.7,116.1L385.0,115.7L384.8,114.6L387.0,113.3L387.4,114.5L389.6,115.4L390.8,114.8L391.7,112.2L393.4,111.7L394.1,110.5L395.8,109.7L395.7,107.7L398.3,108.1L400.1,107.2L401.9,107.1L401.1,104.4L401.8,104.0L405.7,104.0L407.7,106.0L407.8,106.9L411.0,107.3Z"/><path d="M313.9,164.8L338.3,165.0L339.3,166.1L338.6,166.6L338.5,168.6L339.9,169.9L340.1,172.8L338.9,175.1L336.6,176.5L336.0,178.8L335.0,178.6L334.8,182.2L333.6,182.3L334.3,184.3L333.6,185.0L352.5,185.0L351.5,188.3L353.2,190.5L353.6,192.1L354.8,193.2L351.8,194.6L351.6,195.5L354.0,196.2L355.0,194.6L357.1,196.2L357.0,197.5L355.8,198.0L353.5,197.5L353.8,198.4L353.0,199.9L354.9,201.1L358.0,201.5L359.1,203.0L360.0,203.2L358.4,204.9L356.6,204.6L355.2,202.8L351.5,201.9L351.5,200.2L349.7,200.7L349.8,202.2L349.0,203.5L347.7,203.7L346.7,202.2L344.4,202.2L343.5,203.7L342.0,204.1L340.4,203.2L339.1,203.1L337.8,200.6L335.5,199.5L334.7,199.7L333.8,197.6L331.2,197.9L331.1,196.6L328.5,197.8L328.9,198.8L326.9,199.6L323.8,199.2L320.3,197.8L317.7,197.2L312.3,197.7L311.6,198.1L310.7,197.1L313.1,193.6L312.3,191.7L313.0,190.6L312.7,189.2L313.7,188.2L314.7,185.6L314.6,183.5L311.8,179.4L311.8,177.2L309.6,175.1L309.6,164.8L313.9,164.8Z"/><path d="M543.0,64.4L541.8,63.7L541.9,62.7L540.3,61.6L539.7,48.4L539.2,42.0L543.5,40.6L542.8,39.9L544.4,38.4L546.1,37.6L545.8,37.0L547.4,36.1L546.9,34.4L547.9,31.7L549.4,30.8L550.0,28.1L557.7,20.4L559.6,20.7L559.7,22.6L561.0,23.2L564.2,22.1L566.2,22.1L567.7,21.4L570.5,23.0L572.1,24.3L572.2,35.6L572.0,38.2L575.4,39.0L574.9,40.1L575.8,41.2L575.1,42.2L576.5,43.7L578.4,43.4L580.2,47.0L578.1,48.5L576.9,47.9L575.9,49.0L574.5,48.8L574.3,49.7L572.5,49.6L569.5,51.7L568.8,50.2L567.8,50.1L568.3,51.7L566.0,52.5L565.4,51.2L564.3,51.9L561.7,51.9L561.7,50.4L560.2,50.7L560.4,51.8L559.0,54.0L559.3,54.6L557.4,55.8L555.6,55.3L554.5,56.6L552.9,56.8L551.7,57.8L550.1,57.6L549.7,56.5L547.5,58.2L548.1,59.3L546.4,59.7L546.3,60.6L544.4,61.8L543.0,64.4Z"/><path d="M490.1,115.5L489.8,115.5L489.6,115.5L490.1,115.5ZM455.2,97.8L492.1,97.8L493.1,110.4L499.5,110.5L497.6,114.7L496.0,114.9L493.3,115.5L491.1,115.9L491.2,114.3L490.4,113.6L491.5,112.9L490.0,111.3L489.5,112.0L487.4,111.8L486.7,110.0L487.4,110.0L487.4,107.6L488.1,106.7L487.2,103.5L488.3,101.7L490.0,101.3L490.3,99.4L489.0,99.6L489.0,100.6L486.3,101.9L485.6,103.0L485.4,105.9L484.4,107.3L484.9,109.6L486.2,111.2L486.0,112.4L486.8,113.6L486.4,114.4L484.1,112.8L480.8,112.1L479.8,110.5L477.9,111.4L477.2,110.2L478.7,108.7L479.6,107.1L480.9,106.0L479.6,105.1L478.8,105.7L477.5,104.7L475.4,104.2L475.4,102.8L474.3,101.9L472.8,101.8L471.7,99.0L470.0,99.0L468.3,98.1L467.3,98.8L465.7,98.8L465.3,99.9L462.3,99.1L460.4,100.6L459.1,100.3L457.1,102.0L455.1,102.9L455.2,97.8Z"/><path d="M540.8,66.1L541.8,66.3L542.2,68.0L541.8,69.5L540.2,70.8L540.1,72.3L542.3,72.5L543.6,74.1L543.4,75.4L544.5,75.7L544.6,76.9L547.4,77.8L550.6,76.9L549.9,78.3L545.2,79.5L543.4,79.5L542.4,78.6L540.7,78.9L540.7,79.6L538.8,80.0L538.0,78.2L537.8,77.9L536.7,77.2L536.2,74.8L534.7,74.8L532.0,74.9L532.0,74.8L519.5,74.6L515.1,74.5L514.9,74.1L517.3,67.5L525.4,67.7L537.0,68.0L538.1,67.1L540.8,66.1Z"/><path d="M415.5,77.7L401.9,78.1L401.9,77.4L390.1,77.4L381.8,77.4L383.8,76.1L385.2,73.8L386.4,72.5L387.4,70.6L387.9,67.8L387.7,64.9L384.7,59.1L385.7,56.9L385.0,54.2L387.3,51.6L387.8,49.3L387.5,48.1L389.1,47.6L389.3,46.0L391.9,45.5L393.9,43.7L393.7,47.3L394.8,47.5L396.1,45.7L396.1,42.6L396.9,41.9L399.7,41.4L398.8,39.2L400.6,37.4L402.9,37.3L405.4,38.5L407.8,38.6L409.0,40.1L410.9,40.2L414.0,41.5L415.1,41.4L416.8,43.6L415.5,44.7L416.8,46.2L417.3,47.9L416.7,51.6L414.6,52.5L414.1,54.5L411.7,55.1L410.4,57.4L410.9,58.3L413.3,59.1L415.2,57.9L417.4,55.3L420.8,54.3L422.5,55.1L423.6,56.5L424.6,60.6L424.8,62.7L425.9,65.2L424.8,68.9L423.2,69.4L423.1,68.1L422.0,68.5L420.8,71.5L418.7,72.6L418.1,74.9L415.6,76.9L415.5,77.7ZM394.9,37.7L395.1,38.9L393.8,39.1L394.3,37.4L394.9,37.7ZM374.1,44.0L372.6,43.0L373.5,41.6L371.1,41.4L372.1,40.0L372.2,38.2L370.1,37.0L369.0,35.8L364.7,34.8L363.4,35.1L359.1,33.6L348.8,31.6L347.7,29.9L345.8,29.3L349.7,28.3L351.5,27.1L355.9,26.6L358.7,25.1L360.0,25.0L361.1,24.0L364.2,22.5L365.8,21.3L368.2,20.4L370.4,21.2L366.5,24.2L365.6,25.3L365.6,27.1L367.5,25.7L371.0,25.9L373.7,26.9L376.1,29.6L377.4,30.1L379.9,29.7L380.5,30.3L383.0,30.6L388.4,28.3L391.2,28.1L394.9,28.2L397.4,27.5L399.4,27.4L399.7,30.2L401.7,30.6L403.7,30.1L404.5,30.8L405.8,30.0L408.7,29.7L408.8,33.2L410.1,34.7L412.1,35.1L412.3,34.1L414.2,34.1L415.2,35.1L414.4,35.9L408.9,35.2L406.3,35.7L403.4,34.5L402.6,35.6L403.0,36.5L401.7,36.3L399.8,34.9L396.6,34.1L395.0,34.0L393.4,35.3L390.8,35.7L387.9,35.4L386.8,35.9L386.5,37.0L383.4,38.0L383.5,36.7L382.2,36.4L381.6,37.7L379.3,37.8L378.3,38.4L376.7,40.8L373.9,43.8L374.1,44.0ZM361.9,15.2L359.4,16.5L358.1,16.7L358.2,15.6L364.5,13.3L363.3,14.9L361.9,15.2Z"/><path d="M329.9,27.9L329.1,27.5L327.1,28.3L327.1,34.2L326.5,34.8L323.6,35.7L321.3,37.8L321.1,39.2L322.3,39.3L323.6,40.6L322.4,42.1L322.6,43.8L321.9,47.5L324.5,49.3L326.6,49.5L327.7,50.6L330.7,51.7L331.2,53.0L334.1,54.7L335.7,55.1L337.6,57.2L337.3,58.8L337.8,60.0L336.3,60.0L285.5,60.0L285.5,42.0L283.2,40.9L281.4,39.0L284.2,36.8L284.4,35.7L284.0,31.7L282.8,30.6L282.0,28.4L282.1,25.8L281.8,25.3L281.4,18.9L279.5,15.5L278.7,13.6L278.4,9.5L279.0,8.2L277.7,5.0L298.5,5.0L298.5,1.2L300.4,1.3L301.8,2.0L303.1,7.2L304.1,7.8L307.4,8.0L307.8,8.5L311.6,8.7L312.1,9.8L315.3,9.5L315.3,9.1L317.9,8.6L320.2,8.8L322.7,9.6L323.4,10.6L324.9,10.5L326.3,12.8L327.0,11.8L329.5,11.4L329.9,12.3L332.9,13.0L332.9,13.9L334.3,14.6L337.4,14.2L339.2,13.2L341.6,12.6L342.5,14.1L344.2,13.8L346.2,14.1L348.6,13.9L351.3,15.1L353.8,14.9L353.6,15.5L350.3,16.7L345.6,17.7L342.6,18.7L338.3,21.3L336.4,22.9L333.6,24.7L329.1,27.1L329.9,27.9Z"/><path d="M365.3,145.0L368.0,145.0L369.0,146.1L367.6,157.0L365.3,176.0L366.1,191.3L365.0,191.8L362.6,191.5L361.6,190.9L359.2,191.3L355.8,192.5L354.8,193.2L353.6,192.1L353.2,190.5L351.5,188.3L352.5,185.0L333.6,185.0L334.3,184.3L333.6,182.3L334.8,182.2L335.0,178.6L336.0,178.8L336.6,176.5L338.9,175.1L340.1,172.8L339.9,169.9L338.5,168.6L338.6,166.6L339.3,166.1L338.3,165.0L339.1,163.6L338.6,161.5L339.4,160.7L337.7,159.4L339.3,156.3L341.1,154.7L340.5,153.6L342.6,152.0L342.5,151.3L344.3,150.8L344.1,148.8L345.2,148.4L345.9,146.7L347.5,145.9L346.9,145.0L365.3,145.0Z"/><path d="M331.7,88.9L332.7,88.8L334.7,90.9L335.8,91.2L334.9,92.6L335.1,94.7L336.3,97.7L339.4,100.3L342.7,102.4L343.4,105.7L344.1,106.3L345.3,105.4L347.5,105.8L348.9,106.5L347.9,107.7L348.2,108.7L346.5,111.3L346.4,112.8L349.4,114.9L350.5,116.2L351.6,116.0L354.8,118.1L354.8,119.6L355.6,121.5L354.8,122.2L357.1,125.1L358.7,125.2L357.8,129.2L356.4,128.8L355.8,130.0L355.2,130.0L354.6,130.0L354.7,132.5L352.7,135.0L346.2,135.0L347.8,133.2L349.4,132.0L348.5,130.0L305.3,130.0L303.8,130.0L303.8,125.0L303.9,103.4L301.8,102.9L300.2,100.6L298.9,99.6L301.2,96.7L297.9,95.9L296.9,95.0L294.5,92.4L292.3,89.1L303.7,89.3L317.4,89.2L331.7,88.9Z"/><path d="M209.5,5.0L209.6,16.4L209.5,35.6L209.6,45.0L209.4,45.0L190.8,45.0L159.2,45.0L139.5,45.0L139.5,50.2L137.7,49.2L136.1,47.4L133.8,49.5L131.8,49.9L131.3,49.4L129.0,49.8L127.6,49.3L125.3,50.2L122.2,50.1L121.1,51.1L120.0,50.5L118.7,47.3L116.6,47.2L115.4,46.3L115.5,44.4L114.3,43.7L112.6,41.7L111.7,39.8L111.9,39.0L110.1,38.0L109.1,39.1L106.7,40.4L104.5,39.4L105.0,38.3L104.3,37.3L106.1,36.2L105.1,34.6L105.4,32.3L106.8,28.5L103.9,28.6L103.8,27.9L101.1,26.9L100.7,25.8L97.0,23.1L96.8,22.4L94.7,22.0L92.8,20.8L92.8,18.0L89.5,15.2L89.5,5.0L135.0,5.1L155.5,5.0L209.5,5.0Z"/><path d="M216.8,65.0L233.7,65.0L265.0,65.0L265.3,65.5L270.5,67.3L271.7,66.3L273.1,66.6L277.8,66.6L283.1,68.4L283.7,69.8L285.5,70.1L287.4,74.6L288.7,75.3L289.4,77.0L288.8,78.2L289.0,79.6L290.8,80.5L290.7,83.0L291.7,85.2L291.2,87.8L292.3,89.1L294.5,92.4L296.9,95.0L230.9,95.0L229.5,95.0L229.5,85.0L209.5,85.0L209.5,65.0L216.8,65.0Z"/><path d="M79.7,75.0L109.6,75.0L109.5,125.0L109.5,133.0L108.5,134.7L107.5,134.8L106.3,133.6L102.6,134.0L103.2,139.8L104.0,141.8L104.3,143.6L103.7,145.0L91.5,135.3L84.6,130.0L75.0,122.8L62.9,114.0L50.0,105.0L50.0,92.4L50.0,75.0L63.0,75.1L79.7,75.0Z"/><path d="M539.2,42.0L539.7,48.4L540.3,61.6L541.9,62.7L541.8,63.7L543.0,64.4L541.8,66.3L540.8,66.1L538.1,67.1L537.0,68.0L525.4,67.7L524.6,66.9L524.7,65.5L525.5,64.9L525.4,63.5L526.2,59.3L528.0,57.3L528.8,55.1L529.7,54.2L529.7,51.8L533.0,50.8L534.6,49.1L533.7,47.5L535.1,45.9L535.0,44.9L536.4,42.3L538.7,42.6L539.2,42.0Z"/><path d="M507.6,83.6L511.0,85.0L509.8,87.9L508.1,88.6L507.3,90.1L510.0,90.9L510.2,92.0L509.0,97.4L505.9,101.4L503.9,102.5L502.0,105.1L501.1,103.4L498.2,102.6L494.7,100.4L494.4,98.9L494.4,98.7L494.9,98.2L495.9,97.0L498.5,96.1L498.7,95.4L501.8,93.7L502.3,92.8L499.4,90.8L499.3,89.6L498.0,89.2L497.9,88.1L499.5,86.3L498.7,85.3L501.2,83.2L501.7,82.1L503.0,81.4L507.6,83.6Z"/><path d="M175.8,125.0L181.3,125.1L206.6,125.1L220.0,125.0L220.0,130.0L219.6,130.0L219.5,154.8L219.3,165.0L219.3,175.0L183.8,175.0L183.6,176.0L184.7,177.1L167.9,177.1L167.9,181.7L159.5,181.7L159.6,125.0L175.8,125.0Z"/><path d="M516.6,44.9L516.7,47.0L516.1,48.8L517.1,50.6L516.8,52.5L515.6,54.6L516.5,57.3L516.0,58.1L517.5,59.8L517.2,66.7L517.3,67.5L514.9,74.1L515.1,74.5L514.5,82.1L515.2,82.9L512.7,84.0L513.4,85.1L517.7,85.9L518.6,85.3L522.3,85.3L524.1,85.0L527.2,83.4L527.4,84.6L529.0,85.1L525.3,86.5L517.6,88.7L514.4,89.2L512.2,89.1L510.6,89.6L509.8,87.9L511.0,85.0L507.6,83.6L503.0,81.4L502.6,80.7L501.1,80.6L499.3,78.9L499.5,77.5L498.3,76.3L497.5,76.4L496.4,75.0L452.4,75.0L452.4,72.5L452.4,72.3L458.5,69.5L459.5,68.1L461.5,67.2L460.7,65.5L459.9,65.1L459.3,62.4L465.1,61.2L470.3,61.3L472.4,61.6L474.7,62.7L476.1,62.2L480.4,62.3L483.0,61.6L485.8,59.8L487.6,59.7L487.7,57.0L488.6,55.4L486.4,54.3L486.9,53.0L490.9,51.3L492.4,49.9L497.2,46.5L501.7,44.8L508.5,45.1L516.6,44.9Z"/><path d="M440.2,129.4L447.1,129.5L454.9,129.6L491.3,129.5L492.5,133.5L489.7,133.1L489.3,133.6L485.9,134.2L485.4,134.7L483.2,134.9L483.3,135.6L486.0,135.1L486.4,135.6L489.4,135.1L490.4,136.0L492.2,135.6L492.8,138.0L492.2,139.2L491.0,139.3L488.5,141.8L485.2,141.9L484.6,143.6L486.1,145.3L487.2,145.6L485.1,148.4L483.3,148.1L480.1,148.3L477.9,148.9L474.4,150.8L471.7,153.4L470.3,156.5L468.2,155.8L464.6,156.5L453.2,147.0L442.0,146.8L442.2,145.6L440.7,143.9L439.6,144.6L439.6,143.5L427.2,143.0L424.5,143.4L422.4,144.3L418.9,145.0L413.8,145.2L406.8,145.1L407.1,142.7L409.0,142.5L409.8,140.9L412.3,139.4L415.0,139.3L417.5,137.8L420.1,137.3L422.2,135.0L423.6,134.4L423.9,135.3L427.8,133.4L429.6,133.8L430.9,132.0L432.8,131.5L433.2,129.1L440.2,129.4Z"/><path d="M277.7,5.0L279.0,8.2L278.4,9.5L278.7,13.6L279.5,15.5L281.4,18.9L281.8,25.3L282.1,25.8L282.0,28.4L282.8,30.6L284.0,31.7L284.4,35.7L209.5,35.6L209.6,16.4L209.5,5.0L277.7,5.0Z"/><path d="M444.8,75.2L444.8,88.6L443.3,89.2L444.0,90.3L444.0,91.8L442.6,94.2L441.7,97.9L437.8,101.1L436.5,101.6L435.4,100.9L434.3,102.3L433.1,102.3L431.9,104.2L432.2,105.3L431.1,106.3L429.6,104.7L427.8,107.1L428.3,108.7L427.1,109.2L426.7,110.5L424.1,110.8L422.7,109.4L421.5,109.1L421.1,107.4L419.7,107.7L418.6,108.7L414.8,108.0L413.2,108.7L411.0,107.3L407.8,106.9L407.7,106.0L405.7,104.0L401.8,104.0L402.0,90.0L401.9,78.1L415.5,77.7L419.3,79.0L420.7,79.9L421.6,79.1L423.8,80.7L425.2,81.2L429.9,79.9L432.6,80.1L435.6,78.3L439.9,76.5L444.8,75.2Z"/><path d="M249.1,125.0L303.8,125.0L303.8,130.0L305.7,141.0L305.2,158.6L301.3,157.5L300.3,156.4L297.8,155.4L297.1,156.3L294.5,156.2L294.0,155.7L291.6,156.7L290.6,156.1L288.5,156.6L286.5,158.1L285.8,157.3L283.7,156.5L281.5,156.5L280.8,155.4L278.3,157.6L277.4,156.4L276.3,156.8L275.4,155.9L273.1,155.2L271.3,156.5L270.5,155.1L269.1,155.0L268.3,153.9L266.4,153.4L265.1,154.4L264.3,153.5L262.3,153.6L260.1,152.8L258.1,152.9L257.4,151.0L254.2,150.8L253.0,151.2L250.8,149.3L250.0,149.4L250.0,130.0L231.9,130.0L220.0,130.0L220.0,125.0L229.6,125.1L249.1,125.0Z"/><path d="M17.9,33.3L18.8,33.1L21.0,34.2L21.9,35.4L22.4,38.4L27.5,39.5L31.9,37.9L34.6,37.7L37.8,38.3L38.2,39.0L43.6,37.5L44.9,38.0L47.9,37.7L50.4,36.8L54.7,35.9L58.7,35.7L60.1,35.0L80.8,35.1L82.2,36.8L84.5,37.5L85.4,38.8L83.3,41.8L82.7,43.6L81.5,44.8L81.7,45.7L80.7,47.2L79.6,47.5L77.6,51.1L78.3,52.4L80.2,52.6L81.0,53.4L79.7,56.7L79.7,75.0L63.0,75.1L50.0,75.0L39.6,75.0L26.2,74.9L17.7,74.9L7.9,75.0L6.4,73.8L5.7,70.6L5.8,68.4L4.5,66.6L5.5,65.0L6.2,62.3L7.6,59.4L8.3,56.9L9.4,48.4L9.2,47.3L10.2,43.6L10.6,38.4L10.1,35.6L10.5,33.9L14.5,32.4L16.3,33.5L17.9,33.3Z"/><path d="M452.4,72.5L452.4,75.0L496.4,75.0L497.5,76.4L498.3,76.3L499.5,77.5L499.3,78.9L501.1,80.6L502.6,80.7L503.0,81.4L501.7,82.1L501.2,83.2L498.7,85.3L499.5,86.3L497.9,88.1L498.0,89.2L499.3,89.6L499.4,90.8L502.3,92.8L501.8,93.7L498.7,95.4L498.5,96.1L495.9,97.0L493.8,96.7L492.1,97.8L455.2,97.8L444.8,97.8L444.8,88.6L444.8,75.2L446.7,74.7L452.4,72.3L452.4,72.5Z"/><path d="M538.0,78.2L538.8,80.0L536.8,80.3L538.0,78.2ZM534.7,74.8L536.2,74.8L536.7,77.2L537.8,77.9L536.6,77.7L535.5,79.2L535.2,81.3L531.4,81.8L532.0,80.9L532.0,74.9L534.7,74.8Z"/><path d="M422.4,144.3L424.5,143.4L427.2,143.0L439.6,143.5L439.6,144.6L440.7,143.9L442.2,145.6L442.0,146.8L453.2,147.0L464.6,156.5L462.8,157.0L460.6,158.6L458.5,161.2L458.1,163.3L456.4,164.9L454.2,164.9L453.7,166.1L451.3,167.4L450.0,168.9L447.9,169.5L445.7,171.0L445.5,171.7L443.4,172.5L441.1,174.7L438.8,173.8L438.8,172.1L437.2,169.4L435.8,168.7L435.7,166.6L435.1,164.9L432.4,163.4L430.6,161.5L430.7,160.4L428.1,158.7L426.7,156.8L424.4,155.6L422.9,153.5L422.5,152.3L421.0,150.1L419.9,150.3L416.6,148.2L416.8,147.1L418.9,145.0L422.4,144.3Z"/><path d="M209.5,35.6L284.4,35.7L284.2,36.8L281.4,39.0L283.2,40.9L285.5,42.0L285.5,60.0L284.2,60.2L284.7,61.0L284.4,62.8L285.7,63.8L284.9,64.5L284.6,66.4L283.7,67.9L285.5,70.1L283.7,69.8L283.1,68.4L277.8,66.6L273.1,66.6L271.7,66.3L270.5,67.3L265.3,65.5L265.0,65.0L233.7,65.0L216.8,65.0L209.5,65.0L209.4,45.0L209.6,45.0L209.5,35.6Z"/><path d="M369.5,130.0L369.3,128.2L371.5,128.7L384.1,128.4L395.1,128.8L397.1,128.7L404.6,129.1L413.1,129.2L413.3,129.0L433.2,129.1L432.8,131.5L430.9,132.0L429.6,133.8L427.8,133.4L423.9,135.3L423.6,134.4L422.2,135.0L420.1,137.3L417.5,137.8L415.0,139.3L412.3,139.4L409.8,140.9L409.0,142.5L407.1,142.7L406.8,145.1L393.9,145.2L376.4,145.0L368.0,145.0L365.3,145.0L346.9,145.0L347.9,144.8L348.9,143.0L348.7,140.6L350.6,139.0L350.9,137.4L352.4,136.9L352.7,135.0L354.7,132.5L354.6,130.0L355.2,130.0L355.8,130.0L357.0,129.9L369.5,130.0Z"/><path d="M231.9,130.0L250.0,130.0L250.0,149.4L250.8,149.3L253.0,151.2L254.2,150.8L257.4,151.0L258.1,152.9L260.1,152.8L262.3,153.6L264.3,153.5L265.1,154.4L266.4,153.4L268.3,153.9L269.1,155.0L270.5,155.1L271.3,156.5L273.1,155.2L275.4,155.9L276.3,156.8L277.4,156.4L278.3,157.6L280.8,155.4L281.5,156.5L283.7,156.5L285.8,157.3L286.5,158.1L288.5,156.6L290.6,156.1L291.6,156.7L294.0,155.7L294.5,156.2L297.1,156.3L297.8,155.4L300.3,156.4L301.3,157.5L305.2,158.6L306.2,159.6L308.2,159.1L309.6,159.5L309.6,164.8L309.6,175.1L311.8,177.2L311.8,179.4L314.6,183.5L314.7,185.6L313.7,188.2L312.7,189.2L313.0,190.6L312.3,191.7L313.1,193.6L310.7,197.1L311.6,198.1L310.0,198.2L304.8,199.5L302.9,198.8L302.6,197.1L301.3,198.3L300.3,198.0L299.8,199.4L300.9,200.0L301.0,201.9L299.2,203.9L296.2,206.3L290.1,209.0L289.5,208.5L287.7,209.2L287.7,208.6L285.2,209.0L284.1,207.8L283.4,208.0L286.0,210.6L284.1,211.4L282.3,210.9L282.0,212.7L279.7,214.6L277.4,218.1L276.0,221.7L274.9,221.4L274.6,222.7L275.7,222.4L275.2,225.0L274.4,225.1L274.4,226.6L275.3,227.4L275.6,230.4L276.7,231.5L276.9,233.4L277.8,235.1L274.8,236.1L273.5,234.8L271.1,234.3L268.0,234.4L265.3,232.8L263.3,232.6L261.8,231.3L259.7,230.9L258.3,229.6L257.3,226.6L255.5,224.8L255.8,223.3L254.9,221.6L255.2,220.2L253.9,218.6L252.9,218.4L251.2,217.0L250.7,215.2L249.2,213.6L247.0,212.2L246.0,209.2L245.0,208.4L243.7,205.9L243.3,204.0L242.0,202.6L239.9,201.3L239.4,200.4L237.4,199.6L235.9,197.5L231.5,197.0L228.9,197.1L226.6,196.3L226.1,197.3L223.7,197.7L221.9,199.8L220.8,203.1L220.2,203.2L218.8,205.1L217.2,205.2L214.7,203.6L208.5,201.2L207.3,199.9L204.9,198.6L203.2,195.8L203.1,193.2L201.4,191.1L201.0,189.3L199.9,188.1L196.1,186.4L194.0,184.1L192.3,183.3L190.5,181.4L187.9,180.3L186.2,177.7L184.7,177.1L183.6,176.0L183.8,175.0L219.3,175.0L219.3,165.0L219.5,154.8L219.6,130.0L220.0,130.0L231.9,130.0Z"/><path d="M128.4,75.0L139.5,75.0L139.5,85.0L159.5,85.0L159.5,103.7L159.4,112.2L159.6,113.3L159.6,125.0L145.0,124.9L109.5,125.0L109.6,75.0L128.4,75.0Z"/><path d="M535.0,44.9L535.1,45.9L533.7,47.5L534.6,49.1L533.0,50.8L529.7,51.8L529.7,54.2L528.8,55.1L528.0,57.3L526.2,59.3L525.4,63.5L525.5,64.9L524.7,65.5L524.6,66.9L525.4,67.7L517.3,67.5L517.2,66.7L517.5,59.8L516.0,58.1L516.5,57.3L515.6,54.6L516.8,52.5L517.1,50.6L516.1,48.8L516.7,47.0L516.6,44.9L526.9,45.0L535.0,44.9Z"/><path d="M496.0,114.9L497.6,114.7L496.2,116.4L494.9,117.0L494.1,119.3L492.0,123.0L490.3,123.8L489.7,122.4L490.6,119.4L493.3,115.5L496.0,114.9ZM489.8,115.5L490.1,115.5L489.6,115.5L489.8,115.5ZM466.5,100.4L471.7,103.7L472.8,101.8L474.3,101.9L475.4,102.8L475.4,104.2L477.5,104.7L478.8,105.7L479.6,107.1L478.7,108.7L477.5,109.1L476.7,110.5L477.2,111.6L479.9,111.3L480.4,112.8L483.9,113.5L484.9,114.8L487.6,116.1L486.4,118.9L487.5,121.1L486.2,122.1L486.0,123.4L487.3,124.2L485.9,125.4L483.8,123.8L483.3,124.3L485.1,125.5L490.1,125.8L491.3,129.5L454.9,129.6L447.1,129.5L440.2,129.4L433.2,129.1L413.3,129.0L418.6,127.6L419.3,126.5L421.2,126.1L421.3,125.2L422.8,124.6L422.8,123.8L426.5,122.3L430.3,119.6L430.1,120.5L431.5,122.1L433.2,123.0L434.5,122.9L436.4,121.6L437.7,122.6L440.3,122.1L444.9,120.2L445.3,120.8L447.0,119.9L447.1,118.1L448.2,116.5L450.0,115.0L450.8,113.2L452.8,111.4L453.5,109.1L455.2,110.4L456.9,110.9L457.9,110.0L460.0,106.5L461.3,107.4L466.0,103.3L466.5,100.4Z"/><path d="M79.7,5.0L79.6,17.4L79.6,30.7L79.4,31.6L80.8,33.3L80.8,35.1L60.1,35.0L58.7,35.7L54.7,35.9L50.4,36.8L47.9,37.7L44.9,38.0L43.6,37.5L38.2,39.0L37.8,38.3L34.6,37.7L31.9,37.9L27.5,39.5L22.4,38.4L21.9,35.4L21.0,34.2L18.8,33.1L17.9,33.3L16.3,33.5L14.5,32.4L12.7,32.0L11.3,32.6L9.3,31.7L9.7,30.4L11.0,29.6L9.0,27.6L7.6,22.1L6.8,21.4L5.7,17.6L3.8,16.1L2.9,13.2L4.0,11.2L6.1,12.1L10.2,13.4L13.0,13.3L15.8,13.8L18.4,13.3L19.6,14.2L22.0,14.1L23.6,16.3L24.8,16.2L25.1,19.1L25.8,21.8L26.8,21.5L25.8,19.2L26.0,17.0L27.7,14.7L26.4,13.8L26.3,12.1L25.3,10.3L25.8,9.0L25.1,7.5L23.5,7.2L22.0,6.1L22.4,5.0L79.7,5.0ZM22.8,11.9L24.1,11.5L23.9,13.5L22.3,12.7L22.8,11.9ZM19.7,9.2L20.8,7.8L22.3,9.4L21.9,10.8L19.6,10.4L19.7,9.2Z"/><path d="M444.8,88.6L444.8,97.8L455.2,97.8L455.1,102.9L457.1,102.0L459.1,100.3L460.4,100.6L462.3,99.1L465.3,99.9L465.7,98.8L467.3,98.8L468.3,98.1L470.0,99.0L471.7,99.0L472.8,101.8L471.7,103.7L466.5,100.4L466.0,103.3L461.3,107.4L460.0,106.5L457.9,110.0L456.9,110.9L455.2,110.4L453.5,109.1L452.8,111.4L450.8,113.2L450.0,115.0L448.2,116.5L447.1,118.1L447.0,119.9L445.3,120.8L444.9,120.2L440.3,122.1L437.7,122.6L436.4,121.6L434.5,122.9L433.2,123.0L431.5,122.1L430.1,120.5L430.3,119.6L429.0,119.5L427.1,118.3L426.6,117.2L425.0,115.7L423.8,113.8L424.1,110.8L426.7,110.5L427.1,109.2L428.3,108.7L427.8,107.1L429.6,104.7L431.1,106.3L432.2,105.3L431.9,104.2L433.1,102.3L434.3,102.3L435.4,100.9L436.5,101.6L437.8,101.1L441.7,97.9L442.6,94.2L444.0,91.8L444.0,90.3L443.3,89.2L444.8,88.6Z"/><path d="M345.8,29.3L347.7,29.9L348.8,31.6L359.1,33.6L363.4,35.1L364.7,34.8L369.0,35.8L370.1,37.0L372.2,38.2L372.1,40.0L371.1,41.4L373.5,41.6L372.6,43.0L374.1,44.0L373.7,45.3L371.8,45.5L370.2,47.8L369.6,49.4L370.7,49.6L372.2,48.6L373.9,46.6L376.0,45.9L377.6,43.3L379.7,42.8L379.5,44.1L378.1,45.3L375.3,49.5L374.5,51.8L374.6,53.4L373.6,54.0L372.6,56.2L373.0,58.1L372.1,59.4L370.9,62.5L371.1,65.0L372.4,67.2L372.0,70.1L362.1,70.1L343.6,69.9L342.9,68.6L339.3,67.5L338.6,65.9L338.2,63.7L339.4,62.5L338.0,61.5L337.8,60.0L337.3,58.8L337.6,57.2L335.7,55.1L334.1,54.7L331.2,53.0L330.7,51.7L327.7,50.6L326.6,49.5L324.5,49.3L321.9,47.5L322.6,43.8L322.4,42.1L323.6,40.6L322.3,39.3L321.1,39.2L321.3,37.8L323.6,35.7L326.5,34.8L327.1,34.2L327.1,28.3L329.1,27.5L329.9,27.9L332.1,28.1L339.1,26.4L341.6,25.4L342.5,26.1L341.1,27.5L344.4,29.2L345.8,29.3Z"/><path d="M159.2,45.0L190.8,45.0L209.4,45.0L209.5,65.0L209.5,85.0L192.7,85.0L170.8,85.0L159.5,85.0L139.5,85.0L139.5,75.0L139.5,50.2L139.5,45.0L159.2,45.0Z"/></g></svg>