<svg xmlns="http://www.w3.org/2000/svg" viewBox="0 0 360 139.6" preserveAspectRatio="xMidYMid meet"><g fill="#fff" stroke="none"><path d="M120.4,164.0L120.1,164.5L119.8,165.0L117.7,164.9L115.5,164.9L114.3,164.6L114.3,164.5L113.7,164.3L116.0,164.3L118.1,164.4L118.9,164.0L119.4,163.6L120.4,164.0ZM20.8,163.5L18.9,163.6L17.6,163.3L17.0,162.9L16.9,162.9L16.3,162.6L16.3,162.6L16.9,162.2L18.8,162.4L19.8,162.7L20.5,163.0L20.8,163.5ZM134.8,162.0L136.1,162.5L136.5,163.1L136.6,163.5L136.7,164.0L135.1,164.3L133.5,164.6L131.6,164.8L129.5,165.0L127.1,165.0L125.8,164.6L126.0,164.2L128.1,163.9L129.0,163.6L129.6,163.2L130.1,162.8L130.7,162.5L131.3,162.0L131.3,162.0L131.8,162.0L133.3,161.8L134.8,162.0ZM58.8,157.5L60.1,157.7L61.3,157.5L60.7,157.8L59.8,158.1L58.4,158.0L57.4,157.7L57.4,157.7L57.6,157.3L58.8,157.5ZM54.4,157.5L56.0,157.9L55.4,157.8L54.1,157.7L52.7,157.5L52.7,157.5L53.4,157.2L54.4,157.5ZM81.0,155.9L82.1,156.1L83.2,156.0L83.8,156.5L83.0,156.4L81.8,156.5L80.6,156.4L79.2,156.5L78.2,156.3L77.7,155.9L77.7,155.9L78.3,155.7L79.6,155.9L81.0,155.9ZM111.5,155.0L111.7,155.4L111.5,155.8L111.2,156.2L110.0,156.3L108.9,156.5L107.6,156.5L108.1,156.1L106.9,156.2L105.8,156.4L105.0,156.1L105.0,155.7L106.1,155.3L106.1,155.3L106.8,155.2L107.9,155.2L108.2,154.7L108.3,154.3L108.3,153.5L108.8,153.0L109.7,152.9L110.3,153.3L110.5,153.6L110.9,154.1L111.3,154.5L111.5,155.0ZM121.4,148.2L121.0,148.4L120.2,148.2L119.4,148.3L118.7,148.5L118.0,148.8L117.5,149.1L117.4,149.5L117.4,149.9L117.9,150.2L117.2,150.4L116.3,150.5L115.7,150.8L115.1,151.2L114.5,151.6L114.3,152.0L114.7,152.4L115.2,152.7L116.0,152.9L116.8,153.2L117.2,153.6L117.4,154.0L117.7,154.4L118.2,154.7L118.5,155.1L118.6,156.0L118.9,156.4L119.0,156.8L119.3,157.2L119.2,157.7L118.6,158.1L118.0,158.4L116.7,158.6L116.3,158.9L115.6,159.3L114.1,159.6L112.8,159.8L111.6,160.0L110.2,160.2L109.4,160.6L107.8,160.7L106.0,160.6L104.4,160.7L102.8,160.7L103.1,161.1L104.6,161.3L105.7,161.6L106.3,161.9L105.2,162.2L103.5,162.1L102.1,162.4L102.0,162.8L102.0,163.2L103.2,163.5L103.4,163.9L104.6,164.3L106.8,164.4L108.6,164.7L110.0,165.0L111.8,165.3L114.3,165.5L116.7,165.7L118.4,166.0L120.3,166.4L121.3,166.8L121.8,167.2L123.0,166.9L124.6,166.6L126.4,166.3L128.5,166.0L130.2,165.7L132.7,165.7L135.2,165.8L137.2,166.1L137.8,165.7L139.2,165.4L141.8,165.3L143.7,165.1L145.6,164.9L147.7,164.8L149.9,164.6L151.5,164.3L150.7,164.0L150.3,163.6L150.3,163.3L148.4,163.3L146.3,163.5L144.4,163.5L144.1,163.1L144.2,162.3L144.7,162.1L146.1,161.9L147.8,161.7L149.0,161.4L150.2,161.1L151.1,160.7L152.5,160.5L153.8,160.4L154.5,160.3L156.1,160.2L157.5,160.1L158.8,159.9L160.0,159.7L161.1,159.4L162.5,159.1L163.4,158.8L164.3,158.5L164.6,158.1L163.5,157.9L163.9,157.5L164.6,157.1L165.6,157.0L166.7,156.7L167.7,156.4L168.5,156.0L169.0,155.5L169.7,155.3L170.9,155.3L171.4,155.7L172.6,155.7L172.6,155.3L173.1,154.9L174.2,155.0L174.5,155.4L175.7,155.5L177.0,155.3L178.2,155.2L179.3,155.2L179.8,155.6L180.9,155.3L181.9,155.1L183.0,155.0L184.1,154.9L185.2,154.6L186.3,154.5L187.1,154.2L187.7,153.9L188.5,154.1L189.5,154.0L190.2,154.5L190.8,154.8L192.0,154.6L192.4,154.2L193.4,154.0L194.7,154.0L195.1,154.4L195.9,154.0L197.0,153.9L198.2,153.9L199.3,153.9L200.4,154.0L201.5,154.1L201.9,154.4L202.6,154.7L203.7,154.5L204.8,154.5L206.0,154.5L207.1,154.5L208.1,154.3L209.2,154.2L210.0,153.9L211.0,153.8L212.0,153.7L212.8,153.4L213.3,152.8L213.9,152.5L214.9,152.7L215.3,153.0L216.2,153.2L217.2,153.2L217.9,153.5L218.6,153.8L219.7,153.5L220.0,153.1L220.9,152.9L222.0,152.6L222.9,152.5L224.1,152.3L224.9,152.1L225.7,151.8L226.5,151.6L227.4,151.7L228.3,151.4L229.0,151.1L229.9,151.1L230.8,150.9L230.9,150.5L231.8,150.2L232.6,150.1L233.6,149.9L234.5,149.8L235.4,149.9L236.4,150.0L237.2,150.2L237.3,150.7L238.1,151.0L238.7,151.3L239.9,151.4L240.6,151.7L241.4,152.0L242.4,152.0L243.2,151.8L244.1,151.4L245.0,151.6L246.0,151.7L246.9,151.9L247.9,151.9L248.9,151.9L249.7,153.0L249.7,153.2L249.6,153.7L248.6,153.9L247.8,154.3L247.9,154.7L249.1,154.7L248.9,155.1L248.4,155.4L247.9,155.9L248.7,156.2L249.9,156.3L251.0,156.1L251.6,155.7L251.9,155.3L252.5,155.0L253.1,154.7L253.3,154.4L253.9,153.9L254.5,153.8L255.6,153.7L256.6,153.6L257.6,153.5L258.1,153.1L258.4,152.7L259.1,152.3L260.1,152.1L260.9,151.9L261.5,151.5L262.1,151.4L262.8,151.2L263.8,151.3L264.7,151.2L265.7,151.1L266.8,151.2L267.5,150.9L268.0,150.2L268.4,150.5L268.8,151.0L269.7,151.2L270.6,151.2L271.6,151.1L272.6,151.2L273.5,151.2L274.2,151.1L275.0,151.2L275.8,151.4L276.7,151.2L277.8,151.2L278.7,151.1L279.7,151.2L280.4,150.9L280.9,150.6L281.6,150.3L282.8,149.6L283.5,149.7L284.2,150.0L284.9,150.3L286.2,150.9L287.2,151.0L288.1,151.0L289.2,150.8L290.2,150.7L291.1,150.4L291.7,150.1L292.9,150.1L293.6,149.9L294.4,150.1L294.9,150.4L295.6,150.7L296.7,150.7L297.4,150.9L298.6,151.2L299.8,151.3L300.9,151.2L301.7,150.9L302.3,150.6L303.2,150.5L304.1,150.6L305.2,150.7L306.1,150.6L307.0,150.6L307.9,150.7L308.8,150.8L309.7,150.6L310.8,150.4L311.8,150.4L312.9,150.4L313.9,150.3L314.8,150.2L315.0,149.7L315.1,149.3L315.7,149.6L315.9,150.0L316.2,150.4L316.6,150.8L317.5,151.0L318.6,150.9L319.9,150.9L320.8,150.8L322.1,150.8L323.1,150.8L324.4,150.8L325.5,150.9L326.2,151.2L326.0,151.6L326.6,151.9L327.7,152.1L328.8,152.4L330.1,152.6L331.5,152.7L332.5,152.9L333.6,152.9L334.3,152.6L335.2,152.8L335.9,153.1L336.8,153.4L338.0,153.5L339.2,153.6L339.7,154.0L340.8,154.2L341.6,154.6L342.7,154.7L343.8,154.7L344.9,154.8L346.1,154.8L347.3,154.8L348.4,155.0L349.5,155.2L350.5,155.4L351.2,155.7L351.1,156.1L350.6,156.4L350.1,156.9L349.8,157.2L349.3,157.7L348.0,157.8L347.4,158.2L346.1,158.4L345.6,158.8L345.0,159.1L344.2,159.5L343.8,159.9L343.6,160.2L343.5,160.7L343.5,161.1L344.1,161.5L344.3,161.8L344.7,162.2L346.6,162.3L347.0,162.8L345.2,162.9L343.7,163.1L341.8,163.2L340.9,163.7L340.7,164.2L340.3,164.6L339.8,164.9L341.1,165.3L341.6,165.7L342.5,166.1L343.7,166.4L345.1,166.7L346.6,167.0L348.9,167.3L349.4,167.8L352.3,168.0L352.5,168.1L353.2,168.4L356.0,168.2L358.3,168.5L360.0,168.7L360.0,174.0L0.0,174.0L0.0,168.7L0.1,168.7L0.9,168.1L2.7,168.5L2.9,168.4L3.1,168.3L3.5,168.2L3.8,168.1L3.9,168.1L4.1,168.1L4.2,168.1L5.6,168.5L6.9,168.1L7.1,168.1L10.0,167.9L11.0,168.1L11.5,168.2L13.0,168.6L15.8,168.8L18.1,169.1L21.9,169.4L24.8,169.1L29.1,169.3L31.5,169.6L34.1,169.3L36.9,169.0L37.1,168.6L33.2,168.5L29.9,168.3L29.1,167.9L26.4,167.7L26.6,167.2L27.0,166.8L27.3,166.5L27.1,166.0L25.5,165.8L24.7,165.4L23.2,165.1L25.6,165.2L27.9,165.0L29.4,165.3L31.1,165.0L32.8,164.7L33.6,164.3L33.2,163.9L31.9,163.7L30.5,163.4L28.4,163.3L26.6,163.2L24.7,163.1L24.0,162.7L22.7,162.4L21.9,162.0L21.6,160.9L22.1,161.0L23.0,161.3L24.7,161.2L26.3,161.1L27.1,161.5L28.7,161.4L30.0,161.2L31.3,160.9L32.4,160.6L33.9,160.5L33.9,160.1L33.5,159.7L33.8,159.4L35.1,159.2L35.7,159.5L37.2,159.3L38.4,159.1L39.8,159.1L41.1,159.0L42.5,158.7L43.6,158.5L44.8,158.3L45.6,158.4L46.3,158.4L47.7,158.3L49.1,158.5L50.4,158.5L51.8,158.3L53.1,158.4L54.6,158.5L56.0,158.5L57.4,158.5L58.9,158.5L60.3,158.5L61.3,158.2L62.5,158.0L63.8,158.2L65.0,158.1L66.1,157.7L66.7,158.0L67.1,158.4L67.7,158.7L68.7,158.4L69.9,158.8L71.3,158.9L72.4,159.2L73.9,159.1L75.1,158.9L76.6,159.0L78.0,159.1L79.4,159.3L79.9,158.9L79.2,158.5L78.7,158.2L77.5,158.1L76.9,157.7L76.7,157.4L76.3,156.6L77.1,156.8L78.4,156.8L79.7,156.8L80.9,156.9L81.9,157.2L82.3,157.6L83.7,157.6L85.0,157.5L86.3,157.3L87.6,157.2L88.6,157.4L89.9,157.3L90.8,156.6L91.6,157.0L92.7,157.2L94.0,157.1L94.8,157.5L96.1,157.5L97.3,157.6L98.5,157.9L99.3,157.5L99.7,157.1L100.7,157.5L102.1,157.4L103.1,157.6L103.8,158.0L105.1,157.9L106.1,157.7L107.2,157.4L108.4,157.3L109.8,157.1L111.1,157.0L112.0,156.8L112.6,156.5L112.9,156.0L112.7,155.6L112.4,155.2L112.1,154.9L111.8,154.5L111.5,154.1L111.5,153.7L111.6,153.3L112.0,153.0L112.4,152.5L112.6,152.1L112.4,151.7L112.3,151.3L112.7,150.9L113.3,150.6L113.9,150.2L114.6,149.9L115.4,149.6L115.8,149.2L116.4,148.9L117.0,148.6L118.0,148.6L118.6,148.3L119.3,148.1L120.1,148.0L120.8,147.7L121.4,147.4L122.2,147.3L122.8,147.5L122.4,147.9L121.4,148.2ZM112.2,137.8L113.5,138.4L115.0,138.7L114.5,139.2L113.5,139.2L113.0,138.9L112.7,139.3L111.9,139.6L110.8,139.5L110.0,139.2L109.0,139.1L107.7,138.5L106.7,138.0L105.3,136.8L106.2,137.0L107.6,137.7L108.9,138.1L109.4,137.6L109.7,136.9L110.7,136.5L111.4,136.6L111.4,136.6L111.8,137.1L112.2,137.8ZM121.5,135.1L122.2,135.6L122.0,135.9L120.6,136.2L120.2,135.8L119.3,136.3L118.8,135.8L120.0,135.2L120.8,135.5L121.5,135.1ZM250.3,133.7L248.7,133.8L248.7,133.2L248.9,132.8L248.9,132.6L249.6,132.9L250.5,133.1L250.6,133.3L250.3,133.7ZM325.4,124.8L326.4,125.1L326.9,125.0L327.7,124.8L328.3,124.9L328.4,126.1L328.0,126.4L327.9,127.2L327.6,126.9L326.9,127.6L326.7,127.6L326.0,127.5L325.4,126.7L325.3,126.0L324.7,125.2L324.7,124.7L325.4,124.8ZM353.0,124.9L353.2,125.3L354.0,124.9L354.2,125.3L354.2,125.8L353.9,126.2L353.2,127.0L352.7,127.4L353.1,127.9L352.3,127.9L351.5,128.2L351.2,128.9L350.6,129.9L349.8,130.4L349.3,130.6L348.4,130.6L347.8,130.3L346.7,130.2L346.5,129.9L347.0,129.1L348.3,128.1L348.9,127.9L349.7,127.6L350.5,127.0L351.1,126.5L351.6,125.8L351.9,125.5L352.1,125.0L352.8,124.5L353.0,124.9ZM354.6,120.2L355.3,121.2L355.4,120.5L355.8,120.8L356.0,121.6L356.8,121.9L357.4,122.0L358.0,121.6L358.5,121.7L358.3,122.6L358.0,123.2L357.2,123.1L356.9,123.4L357.0,123.9L356.9,124.1L356.5,124.6L356.0,125.3L355.2,125.7L355.1,125.4L354.7,125.3L355.2,124.5L354.9,123.9L353.8,123.5L353.9,123.1L354.6,122.8L354.7,122.0L354.7,121.4L354.3,120.7L354.3,120.5L353.8,120.1L353.1,119.2L352.6,118.5L353.0,118.5L353.6,119.0L354.3,119.3L354.6,120.2ZM347.1,106.2L346.7,106.4L346.2,106.1L345.5,105.7L344.8,105.1L344.2,104.4L344.0,104.1L344.5,104.1L345.0,104.5L345.5,104.8L345.8,105.1L346.6,105.7L347.1,106.2ZM358.4,101.3L358.7,101.6L358.6,102.2L357.9,102.3L357.4,102.2L357.3,101.7L357.7,101.4L358.1,101.5L358.4,101.3ZM359.4,100.8L358.7,101.0L358.6,100.6L359.1,100.4L359.4,100.4L360.0,100.1L360.0,100.6L359.4,100.8ZM0.1,100.5L0.0,100.6L0.0,100.1L0.2,100.0L0.1,100.5ZM347.8,100.5L347.5,100.6L347.2,100.2L347.2,99.9L347.8,100.5ZM347.1,98.9L347.3,99.7L347.0,99.6L346.8,99.7L346.6,99.4L346.6,98.6L347.1,98.9ZM230.1,97.6L230.2,98.8L230.5,99.2L230.4,99.7L230.2,100.0L229.9,99.4L229.7,99.7L229.9,100.5L229.8,100.9L229.5,101.1L229.4,102.0L229.0,103.1L228.5,104.5L227.9,106.4L227.5,107.8L227.1,108.9L226.3,109.2L225.4,109.6L224.8,109.3L224.0,109.0L223.8,108.5L223.7,107.6L223.3,106.8L223.3,106.1L223.4,105.3L223.9,105.2L223.9,104.8L224.4,104.1L224.5,103.4L224.2,103.0L224.0,102.3L224.0,101.4L224.3,100.9L224.4,100.2L224.9,100.2L225.5,100.0L225.9,99.8L226.3,99.8L226.9,99.2L227.7,98.6L228.0,98.1L227.9,97.7L228.3,97.8L228.8,97.1L228.9,96.5L229.2,96.0L229.5,96.5L229.8,96.9L230.1,97.6ZM323.6,97.8L323.9,98.5L324.6,98.2L324.9,98.6L325.4,99.0L325.3,99.4L325.5,100.3L325.6,100.8L325.9,100.9L326.2,101.8L326.1,102.3L326.4,103.0L327.5,103.5L328.2,104.0L328.8,104.4L328.7,104.6L329.3,105.3L329.7,106.3L330.1,106.1L330.5,106.6L330.7,106.4L330.9,107.5L331.6,108.1L332.1,108.5L332.9,109.3L333.1,110.1L333.2,110.6L333.1,111.3L333.6,112.1L333.5,113.0L333.3,113.5L333.1,114.4L333.1,114.9L332.9,115.6L332.5,116.6L331.7,117.0L331.3,117.8L331.0,118.3L330.7,119.2L330.3,119.7L330.1,120.4L329.9,121.1L330.0,121.4L329.4,121.8L328.3,121.8L327.4,122.2L326.9,122.6L326.3,123.0L325.5,122.6L324.9,122.4L325.0,121.9L324.5,122.1L323.6,122.8L322.7,122.5L322.2,122.4L321.6,122.3L320.6,122.0L320.0,121.4L319.8,120.6L319.6,120.1L319.1,119.7L318.1,119.6L318.4,119.1L318.2,118.4L317.7,119.1L316.8,119.3L317.4,118.7L317.5,118.1L317.9,117.6L317.8,116.9L317.0,117.8L316.4,118.1L316.0,118.9L315.2,118.5L315.2,117.9L314.6,117.2L314.1,116.8L314.3,116.6L313.0,116.0L312.3,116.0L311.3,115.5L309.5,115.6L308.2,115.9L307.1,116.3L306.1,116.2L305.1,116.7L304.2,117.0L304.0,117.5L303.7,117.9L302.8,117.9L302.2,118.0L301.3,117.8L300.6,117.9L299.9,118.0L299.3,118.5L299.0,118.5L298.5,118.7L298.0,119.1L297.3,119.0L296.6,119.0L295.6,118.4L295.0,118.2L295.0,117.6L295.5,117.5L295.7,117.3L295.7,116.9L295.8,116.2L295.7,115.6L295.2,114.6L295.0,114.0L295.0,113.5L294.6,112.8L294.6,112.5L294.2,112.1L294.0,111.3L293.5,110.5L293.3,110.1L293.8,110.5L293.4,109.6L293.9,109.9L294.2,110.3L294.2,109.8L293.7,109.0L293.6,108.7L293.4,108.4L293.5,107.8L293.7,107.6L293.8,107.1L293.7,106.5L294.1,105.8L294.2,106.5L294.6,105.8L295.5,105.5L295.9,105.1L296.7,104.7L297.2,104.6L297.4,104.7L298.2,104.4L298.8,104.3L299.0,104.0L299.3,104.0L299.8,104.0L300.9,103.7L301.4,103.2L301.7,102.7L302.2,102.2L302.3,101.8L302.3,101.3L303.0,100.4L303.4,101.3L303.9,101.1L303.5,100.6L303.8,100.1L304.3,100.3L304.4,99.6L304.9,99.1L305.2,98.7L305.7,98.5L305.7,98.2L306.1,98.3L306.1,98.1L306.6,98.0L307.1,97.8L307.8,98.3L308.4,98.9L309.0,98.9L309.6,99.0L309.4,98.4L309.9,97.6L310.3,97.4L310.2,97.1L310.6,96.5L311.2,96.2L311.7,96.3L312.6,96.1L312.6,95.6L311.8,95.3L312.4,95.1L313.0,95.4L313.6,95.8L314.4,96.0L314.7,95.9L315.3,96.2L315.9,96.0L316.3,96.0L316.5,95.9L317.0,96.4L316.7,96.9L316.3,97.3L316.0,97.3L316.1,97.7L315.8,98.2L315.4,98.7L315.5,99.0L316.3,99.6L317.1,99.9L317.6,100.2L318.3,100.8L318.6,100.8L319.1,101.1L319.3,101.4L320.2,101.7L320.9,101.4L321.1,100.8L321.3,100.4L321.4,99.8L321.7,99.0L321.6,98.6L321.6,98.3L321.5,97.7L321.7,96.9L321.8,96.7L321.7,96.4L321.9,95.9L322.1,95.3L322.1,95.0L322.5,94.7L322.8,95.2L322.9,95.8L323.1,95.9L323.2,96.3L323.5,96.8L323.6,97.4L323.6,97.8ZM342.1,94.5L342.4,94.8L341.7,94.8L341.3,94.2L341.9,94.4L342.1,94.5ZM300.7,94.2L300.3,94.3L299.0,93.6L299.9,93.4L300.4,93.7L300.8,94.0L300.7,94.2ZM340.9,93.9L340.5,93.9L339.8,93.8L339.6,93.6L339.7,93.2L340.4,93.4L340.7,93.6L340.9,93.9ZM341.7,93.6L341.5,93.8L340.8,92.9L340.6,92.3L340.9,92.3L341.3,93.1L341.7,93.6ZM304.4,94.1L303.6,94.4L303.5,94.2L303.6,93.9L304.0,93.3L305.0,92.9L305.1,92.7L305.9,92.4L306.6,92.4L307.0,92.3L307.3,92.4L307.0,92.7L305.9,93.1L305.1,93.4L304.4,94.1ZM297.9,92.1L298.3,92.4L298.9,92.3L299.1,92.7L298.0,92.9L297.3,93.0L296.7,93.0L297.1,92.5L297.6,92.4L297.9,92.1ZM302.9,92.1L302.8,92.6L301.3,92.9L299.9,92.8L299.9,92.4L300.7,92.2L301.3,92.5L302.0,92.5L302.9,92.1ZM339.9,92.3L339.9,92.5L339.1,92.1L338.6,91.8L338.2,91.4L338.4,91.3L338.8,91.6L339.6,92.0L339.9,92.3ZM337.5,91.3L337.3,91.4L336.9,91.2L336.5,90.8L336.5,90.6L337.1,91.0L337.5,91.3ZM288.6,90.8L290.5,90.9L290.8,90.5L292.6,90.9L293.0,91.6L294.5,91.8L295.7,92.4L294.6,92.8L293.5,92.3L292.6,92.4L291.5,92.3L290.6,92.1L289.4,91.7L288.7,91.6L288.3,91.8L286.5,91.4L286.3,90.9L285.4,90.9L286.1,89.9L287.3,90.0L288.1,90.3L288.5,90.4L288.6,90.8ZM314.7,90.2L314.2,90.9L314.1,90.1L314.3,89.8L314.5,89.4L314.7,89.7L314.7,90.2ZM335.9,90.8L335.6,90.9L335.2,90.5L334.7,89.9L334.5,89.1L334.7,89.0L334.8,89.3L335.1,89.6L335.5,90.2L336.0,90.5L335.9,90.8ZM332.0,89.5L331.5,89.6L331.3,89.8L330.8,90.1L330.2,90.3L329.7,90.3L328.9,90.0L328.3,89.7L328.4,89.4L329.3,89.6L329.8,89.5L330.0,89.0L330.1,89.0L330.2,89.5L330.8,89.5L331.1,89.1L331.6,88.8L331.5,88.2L332.1,88.1L332.3,88.3L332.3,88.9L332.0,89.5ZM307.2,87.5L306.9,87.8L306.2,87.6L306.0,87.2L307.0,87.1L307.2,87.5ZM310.5,87.1L310.8,87.9L310.0,87.4L309.2,87.4L308.6,87.4L307.9,87.4L308.1,86.8L309.4,86.8L310.5,87.1ZM333.1,88.5L332.8,88.8L332.6,88.2L332.4,87.8L332.0,87.5L331.4,87.0L330.7,86.7L330.9,86.5L331.5,86.8L331.8,87.0L332.2,87.2L332.6,87.7L333.0,88.0L333.1,88.5ZM314.1,85.2L314.4,86.8L315.5,87.4L316.3,86.3L317.4,85.7L318.3,85.7L319.2,86.1L319.9,86.4L321.0,86.6L322.7,87.3L324.6,87.9L325.3,88.4L325.8,88.9L326.0,89.5L327.6,90.1L327.9,90.6L327.0,90.7L327.2,91.4L328.1,92.0L328.7,93.1L329.3,93.1L329.3,93.5L330.0,93.7L329.7,93.9L330.8,94.3L330.7,94.6L330.0,94.7L329.8,94.4L328.9,94.3L327.9,94.1L327.1,93.5L326.6,92.9L326.0,92.1L324.7,91.6L323.9,91.9L323.3,92.2L323.4,93.0L322.6,93.3L322.1,93.2L321.0,93.1L320.1,92.3L319.1,92.1L318.9,92.4L317.6,92.4L318.0,91.6L318.7,91.3L318.4,90.2L317.9,89.4L316.0,88.5L315.2,88.5L313.7,87.5L313.4,88.0L313.0,88.1L312.8,87.7L312.8,87.3L312.0,86.8L313.1,86.5L313.8,86.5L313.7,86.2L312.2,86.2L311.8,85.6L310.9,85.4L310.5,84.9L311.9,84.7L312.4,84.4L314.0,84.8L314.1,85.2ZM305.2,82.6L304.4,83.6L303.7,83.8L302.7,83.6L301.1,83.6L300.2,83.8L300.0,84.5L300.9,85.4L301.5,85.0L303.3,84.6L303.3,85.1L302.8,84.9L302.4,85.5L301.5,85.9L302.5,87.2L302.3,87.5L303.2,88.7L303.2,89.3L302.6,89.6L302.2,89.3L302.7,88.5L301.7,88.9L301.5,88.6L301.6,88.2L300.9,87.6L301.0,86.6L300.3,86.9L300.4,88.1L300.4,89.5L299.8,89.7L299.4,89.4L299.7,88.5L299.5,87.5L299.1,87.5L298.8,86.8L299.2,86.1L299.3,85.4L299.8,83.8L300.0,83.4L300.9,82.7L301.7,83.0L302.9,83.1L304.1,83.1L305.1,82.4L305.2,82.6ZM308.7,82.9L308.6,83.7L308.1,83.6L308.0,84.3L308.4,84.8L308.1,84.9L307.7,84.3L307.4,83.0L307.6,82.2L307.9,81.8L308.0,82.4L308.6,82.5L308.7,82.9ZM285.8,89.9L284.7,89.9L283.9,89.0L282.6,88.2L282.2,87.6L281.4,86.8L280.9,86.1L280.1,84.7L279.3,83.8L279.0,83.0L278.6,82.2L277.7,81.5L277.2,80.7L276.4,80.1L275.4,79.0L275.3,78.5L275.9,78.6L277.5,78.8L278.4,79.7L279.1,80.4L279.7,80.8L280.6,81.9L281.7,81.9L282.5,82.6L283.1,83.4L283.8,83.9L283.4,84.7L284.0,85.1L284.4,85.1L284.5,85.8L284.9,86.3L285.6,86.4L286.1,87.1L285.9,88.3L285.8,89.9ZM297.9,82.2L299.0,83.1L297.8,83.2L297.5,83.9L297.5,84.8L296.6,85.5L296.5,86.5L296.1,88.0L296.0,87.7L294.9,88.1L294.5,87.5L293.8,87.4L293.3,87.1L292.1,87.5L291.7,87.0L291.0,87.0L290.2,86.9L290.1,85.6L289.6,85.3L289.1,84.5L289.0,83.6L289.1,82.7L289.7,82.0L290.4,82.3L291.2,82.1L291.4,81.3L291.8,81.1L293.0,80.9L293.7,80.1L294.2,79.5L294.6,79.1L295.5,78.6L296.2,77.9L296.7,77.1L297.1,77.1L297.6,77.6L297.7,78.0L298.3,78.3L299.2,78.6L299.1,79.0L298.4,79.0L298.6,79.5L297.9,79.9L297.3,80.8L298.0,81.7L297.9,82.2ZM306.4,75.6L306.5,76.2L306.5,76.8L306.2,77.7L305.8,76.7L305.4,77.2L305.7,78.0L305.4,78.4L304.2,77.8L303.9,77.1L304.2,76.6L303.6,76.2L303.3,76.6L302.8,76.5L302.1,77.1L301.9,76.8L302.3,76.0L302.9,75.7L303.5,75.3L303.8,75.8L304.6,75.5L304.8,75.0L305.5,75.0L305.4,74.2L306.2,74.7L306.3,75.2L306.4,75.6ZM261.2,77.8L260.3,78.0L259.9,77.2L259.7,75.8L260.1,74.2L260.8,74.7L261.3,75.4L261.8,76.5L261.6,77.5L261.2,77.8ZM119.1,73.9L118.2,74.0L118.0,73.9L118.3,73.6L118.3,73.2L118.9,73.1L119.1,73.1L119.1,73.9ZM304.0,73.7L303.6,74.0L303.3,74.7L303.0,75.0L302.4,74.3L302.6,74.0L302.8,73.7L302.9,73.1L303.5,73.1L303.3,73.7L304.1,72.8L304.0,73.7ZM298.5,74.7L297.2,75.6L297.7,74.9L298.4,74.3L299.0,73.6L299.5,72.6L299.7,73.4L299.0,74.0L298.5,74.7ZM301.9,72.1L302.5,72.4L303.1,72.4L303.1,72.8L302.6,73.3L302.0,73.6L302.0,73.1L302.0,72.6L301.9,72.1ZM305.5,71.8L305.8,73.0L305.0,72.7L305.0,73.0L305.3,73.6L304.8,73.9L304.8,73.2L304.5,73.1L304.3,72.5L304.9,72.6L304.9,72.2L304.3,71.4L305.2,71.5L305.5,71.8ZM301.5,70.9L301.3,71.8L300.8,71.3L300.3,70.5L301.2,70.6L301.5,70.9ZM301.3,65.5L301.9,65.8L302.2,65.5L302.3,65.8L302.2,66.2L302.5,66.9L302.3,67.7L301.7,68.1L301.5,68.9L301.7,69.7L302.3,69.8L302.7,69.7L304.0,70.2L303.9,70.8L304.2,71.0L304.1,71.5L303.3,71.0L302.9,70.4L302.7,70.8L302.0,70.2L301.1,70.4L300.6,70.1L300.7,69.7L301.0,69.5L300.7,69.2L300.6,69.6L300.1,69.0L299.9,68.6L299.9,67.6L300.3,68.0L300.4,66.4L300.7,65.5L301.3,65.5ZM114.4,65.8L114.2,66.0L113.4,66.0L112.8,66.1L112.8,65.6L112.9,65.5L113.7,65.5L114.2,65.6L114.4,65.8ZM103.1,66.1L102.8,66.3L102.2,66.1L101.7,65.8L101.8,65.5L102.2,65.5L102.4,65.5L103.1,65.6L103.6,65.8L103.8,66.1L103.1,66.1ZM107.4,64.1L108.3,64.3L108.4,64.1L109.2,64.1L109.8,64.4L110.0,64.4L110.2,64.7L110.8,64.7L110.7,65.0L111.2,65.0L111.7,65.4L111.3,65.8L110.8,65.6L110.4,65.6L110.0,65.6L109.9,65.8L109.5,65.8L109.3,65.6L109.0,65.7L108.6,66.4L108.3,66.2L108.3,66.0L107.6,65.8L107.2,65.9L106.5,65.8L106.1,66.0L105.5,65.7L105.6,65.3L106.6,65.5L107.3,65.6L107.7,65.3L107.2,64.9L107.2,64.5L106.6,64.4L106.8,64.1L107.4,64.1ZM290.3,65.3L289.5,65.8L288.7,65.5L288.6,64.6L289.1,64.2L290.2,63.9L290.8,63.9L291.0,64.3L290.6,64.7L290.3,65.3ZM24.5,64.9L24.3,65.1L24.1,64.9L24.1,64.7L23.9,64.3L24.0,64.2L24.1,64.0L24.1,63.8L24.1,63.7L24.2,63.8L24.6,63.9L24.8,64.0L24.9,64.1L25.2,64.5L25.2,64.5L24.8,64.8L24.5,64.9ZM23.9,63.4L23.6,63.4L23.4,63.2L23.3,63.1L23.3,63.1L23.4,63.0L23.7,63.1L24.0,63.2L23.9,63.4ZM23.2,62.8L23.2,62.9L22.7,62.9L22.7,62.8L23.2,62.8ZM22.3,62.7L22.3,62.7L22.2,62.7L21.9,62.7L21.7,62.5L21.7,62.4L22.0,62.3L22.1,62.3L22.3,62.7ZM20.7,62.0L20.5,62.1L20.2,61.9L20.3,61.9L20.4,61.8L20.6,61.8L20.7,62.0ZM100.3,61.2L100.7,61.6L101.7,61.5L102.0,61.7L102.9,62.3L103.5,62.8L103.8,62.8L104.4,63.0L104.3,63.3L105.1,63.3L105.8,63.7L105.7,63.9L105.0,64.1L104.4,64.1L103.7,64.0L102.2,64.1L102.9,63.6L102.5,63.3L101.9,63.3L101.5,63.0L101.3,62.4L100.7,62.4L99.8,62.2L99.5,62.0L98.2,61.8L97.8,61.6L98.2,61.4L97.2,61.3L96.5,61.8L96.1,61.8L95.9,62.1L95.5,62.2L95.0,62.1L95.6,61.8L95.8,61.4L96.2,61.2L96.7,61.0L97.5,60.9L97.7,60.8L98.6,60.9L99.4,60.9L100.3,61.2ZM102.5,60.2L102.2,60.3L102.0,59.7L101.6,59.4L101.8,58.8L102.1,58.8L102.5,59.7L102.5,60.2ZM301.2,61.2L300.7,62.0L300.2,61.2L300.1,60.4L300.7,59.5L301.5,58.7L302.0,59.0L301.8,59.6L301.2,61.2ZM102.2,57.4L101.1,57.6L101.0,57.2L101.5,57.1L102.2,57.2L102.2,57.4ZM103.0,57.4L102.8,58.1L102.6,58.0L102.7,57.5L102.2,57.1L102.2,57.0L103.0,57.4ZM314.6,49.9L314.8,50.2L314.2,50.8L313.8,50.5L313.3,50.7L313.0,51.3L312.4,51.0L312.4,50.5L312.9,49.9L313.5,50.1L313.9,49.6L314.6,49.9ZM214.6,48.3L213.9,48.8L214.0,48.9L214.0,49.0L213.0,49.4L212.5,49.3L212.3,48.9L212.7,48.9L212.8,48.9L212.9,48.6L213.7,48.6L214.6,48.3ZM203.7,48.3L204.2,48.6L205.0,48.6L205.8,48.6L205.7,48.8L206.3,48.7L206.2,49.0L204.7,49.1L204.7,48.9L203.5,48.7L203.7,48.3ZM195.5,45.8L195.2,46.6L195.3,46.9L195.1,47.4L194.3,47.0L193.8,46.9L192.4,46.4L192.6,45.9L193.7,46.0L194.8,45.9L195.5,45.8ZM189.2,42.8L189.8,43.5L189.7,44.8L189.2,44.8L188.8,45.1L188.4,44.8L188.4,43.6L188.2,43.0L188.7,43.1L189.2,42.8ZM321.0,46.9L320.6,47.7L320.8,48.2L320.3,48.9L319.0,49.3L317.2,49.4L315.8,50.5L315.1,50.2L315.1,49.4L313.3,49.6L312.2,50.1L311.0,50.1L312.0,50.9L311.3,52.5L310.7,53.0L310.2,52.6L310.4,51.7L309.8,51.4L309.4,50.7L310.4,50.4L310.9,49.8L311.9,49.3L312.6,48.6L314.6,48.3L315.7,48.5L316.7,46.7L317.4,47.2L318.9,46.2L319.4,45.8L320.1,44.6L319.9,43.4L320.3,42.8L321.4,42.6L321.9,44.0L321.9,44.8L321.0,45.8L321.0,46.9ZM189.6,41.8L189.2,42.6L188.8,42.4L188.5,41.7L188.7,41.4L189.4,41.0L189.6,41.8ZM323.9,39.8L324.6,40.0L325.3,39.6L325.5,40.7L324.1,41.0L323.2,42.0L321.6,41.3L321.1,42.4L320.0,42.4L319.8,41.4L320.3,40.7L321.4,40.6L321.7,39.2L322.0,38.4L323.1,39.5L323.9,39.8ZM116.3,37.4L117.1,37.6L118.0,37.6L117.5,38.0L117.1,38.0L115.9,37.6L115.6,37.3L116.0,37.0L116.3,37.4ZM118.2,34.9L117.7,34.9L116.4,34.6L115.5,34.1L115.8,34.0L117.1,34.3L118.2,34.7L118.2,34.9ZM56.5,35.5L56.0,35.6L54.3,35.2L54.0,34.8L53.1,34.5L53.0,34.2L51.9,34.0L51.6,33.5L51.6,33.2L52.7,33.4L53.3,33.6L54.2,33.7L54.6,34.0L55.1,34.5L56.1,34.9L56.5,35.5ZM123.9,33.3L123.2,34.2L123.9,33.8L124.5,34.1L124.2,34.4L125.1,34.7L125.5,34.4L126.5,34.8L126.2,35.5L126.9,35.3L127.0,35.8L127.4,36.5L126.9,37.3L126.5,37.4L125.8,37.2L126.0,36.4L125.8,36.2L124.6,37.1L124.0,37.1L124.7,36.6L123.7,36.4L122.7,36.4L120.7,36.4L120.6,36.1L121.2,35.7L120.8,35.5L121.6,34.9L122.6,33.3L123.3,32.7L124.1,32.4L124.6,32.4L124.4,32.7L123.9,33.3ZM47.3,30.0L47.3,30.0L47.3,30.0L47.3,30.0L48.3,29.9L48.0,31.0L48.8,31.8L48.4,31.8L47.8,31.4L47.5,30.9L46.9,30.6L46.8,30.1L46.8,29.8L47.3,30.0ZM323.6,33.3L324.7,35.0L323.2,34.7L322.6,36.1L323.5,37.2L323.5,37.9L322.7,37.3L322.1,38.0L321.9,37.2L322.0,36.2L321.9,35.1L322.1,34.4L322.2,33.0L321.6,32.1L321.7,30.7L322.6,30.2L322.2,29.8L322.7,29.6L322.9,30.3L323.3,31.3L323.2,32.2L323.6,33.3ZM173.2,31.7L171.4,32.3L170.0,32.2L170.8,31.1L170.3,30.1L171.7,29.3L172.4,28.9L173.3,28.8L174.3,29.4L173.8,30.1L174.0,30.8L173.2,31.7ZM192.7,28.4L192.1,29.2L191.0,28.6L190.9,28.2L192.4,27.9L192.7,28.4ZM27.0,26.9L26.0,27.3L25.5,27.0L25.3,26.5L26.2,26.2L26.8,26.0L27.4,26.1L27.9,26.4L27.0,26.9ZM177.0,25.4L175.9,26.4L176.9,26.3L178.0,26.3L177.8,27.1L176.9,28.0L177.9,28.1L178.9,29.4L179.6,29.5L180.2,30.7L180.5,31.1L181.7,31.3L181.6,31.9L181.1,32.2L181.4,32.7L180.6,33.2L179.2,33.2L177.5,33.5L177.0,33.3L176.4,33.8L175.5,33.7L174.8,34.0L174.2,33.8L175.7,32.8L176.6,32.6L175.0,32.4L174.7,32.0L175.8,31.7L175.2,31.2L175.4,30.5L176.9,30.6L177.1,30.0L176.4,29.4L175.2,29.2L174.9,28.9L175.3,28.5L175.0,28.2L174.4,28.7L174.4,27.7L173.9,27.2L174.2,26.2L175.0,25.4L175.8,25.4L177.0,25.4ZM14.4,24.1L13.8,24.2L13.2,24.1L12.5,23.8L13.5,23.6L14.3,23.7L14.4,24.1ZM100.7,21.8L100.3,22.4L99.9,22.3L99.6,22.0L99.7,21.9L100.1,21.6L100.5,21.6L100.7,21.8ZM98.1,21.3L96.9,21.8L96.2,21.8L96.0,21.5L96.7,21.1L98.1,21.1L98.1,21.3ZM8.3,20.2L8.9,20.4L9.5,20.3L10.3,20.6L11.3,20.7L11.2,20.8L10.5,21.0L9.7,20.8L9.3,20.6L8.4,20.7L8.2,20.6L8.3,20.2ZM94.8,18.3L95.0,18.8L95.5,18.6L96.1,18.9L97.2,19.2L98.4,19.5L98.4,20.0L99.2,19.9L99.9,20.3L99.0,20.6L97.5,20.3L96.9,19.9L95.9,20.4L94.5,20.9L94.1,20.4L92.8,20.5L93.6,20.0L93.8,19.2L94.1,18.3L94.8,18.3ZM165.5,17.5L165.3,18.2L166.4,18.9L165.1,19.6L162.2,20.3L161.3,20.5L160.0,20.4L157.2,20.0L158.2,19.6L156.0,19.1L157.8,18.9L157.8,18.6L155.7,18.4L156.3,17.7L157.9,17.6L159.4,18.3L160.9,17.7L162.2,18.0L163.8,17.5L165.5,17.5ZM104.1,16.9L103.0,16.9L102.8,16.4L103.2,15.9L104.1,15.7L104.9,16.0L104.9,16.4L104.8,16.6L104.1,16.9ZM5.0,17.4L5.7,17.7L5.4,16.9L8.1,17.1L10.1,18.0L9.1,18.5L7.5,18.6L7.4,19.5L7.0,19.7L6.1,19.7L5.3,19.4L4.0,19.1L3.8,18.6L2.8,18.5L1.6,18.6L1.1,18.3L1.3,17.9L0.1,18.1L0.6,18.6L0.0,19.0L0.0,15.0L2.4,15.8L5.1,16.8L5.0,17.4ZM84.4,14.9L83.7,15.2L82.4,14.9L81.6,15.0L80.2,14.6L81.1,14.3L81.8,13.9L82.8,14.1L83.4,14.3L83.7,14.5L84.4,14.9ZM360.0,13.2L358.9,13.2L358.7,12.9L360.0,12.5L360.0,13.2ZM1.3,13.1L0.0,13.2L0.0,12.5L0.1,12.4L1.0,12.4L2.4,12.7L2.3,12.9L1.3,13.1ZM89.5,14.5L89.4,15.5L90.8,14.7L92.0,15.4L91.7,16.1L92.6,16.8L93.7,16.1L94.4,15.2L94.5,14.1L95.9,14.2L97.4,14.3L98.7,14.8L98.8,15.3L98.0,15.9L98.7,16.4L98.6,16.9L96.7,17.6L95.3,17.7L94.2,17.4L93.9,17.9L93.0,18.8L92.7,19.2L91.5,19.9L90.1,20.0L89.3,20.4L89.2,21.0L88.1,21.2L86.8,22.0L85.8,23.1L85.4,23.9L85.3,25.1L86.8,25.2L87.2,26.2L87.7,26.9L89.1,26.7L91.0,27.1L92.0,27.5L92.7,28.0L93.9,28.3L95.0,28.7L96.6,28.8L97.7,28.9L97.6,29.7L97.9,30.7L98.6,31.8L100.1,32.8L100.9,32.5L101.4,31.4L100.9,29.9L100.2,29.3L101.8,28.9L102.9,28.2L103.5,27.5L103.4,26.8L102.7,25.9L101.5,25.2L102.7,24.1L102.2,23.2L101.9,21.7L102.6,21.4L104.3,21.7L105.3,21.8L106.2,21.6L107.1,21.9L108.3,22.5L108.6,22.9L110.4,22.9L110.4,23.8L110.7,25.0L111.6,25.2L112.4,25.8L113.8,25.2L114.8,24.1L115.4,23.7L116.2,24.6L117.5,25.8L118.6,27.0L118.2,27.7L119.5,28.2L120.4,28.8L122.0,29.1L122.7,29.4L123.1,30.2L123.8,30.4L124.2,30.7L124.3,31.9L123.6,32.2L122.9,32.6L121.2,32.9L120.0,33.8L118.3,33.9L116.1,33.7L114.6,33.7L113.6,33.8L112.8,34.5L111.5,34.9L110.0,36.3L108.9,37.2L109.7,37.0L111.3,35.7L113.4,34.9L114.9,34.8L115.8,35.3L114.9,35.9L115.2,37.0L115.5,37.8L116.8,38.3L118.5,38.1L119.5,37.0L119.6,37.7L120.2,38.1L119.0,38.7L116.7,39.3L115.8,39.7L114.6,40.5L113.9,40.4L113.8,39.5L115.6,38.7L114.0,38.7L112.9,38.9L113.0,39.2L112.0,39.7L110.9,40.0L109.9,40.3L109.3,41.0L109.2,41.1L109.2,41.7L109.5,42.2L109.9,42.2L109.8,41.9L110.1,42.1L110.0,42.4L109.4,42.5L108.9,42.5L108.1,42.7L107.7,42.7L107.1,42.8L106.3,43.1L107.8,42.9L108.1,43.1L106.7,43.4L106.0,43.4L106.0,43.2L105.7,43.5L106.0,43.6L105.8,44.3L105.1,45.1L105.0,44.8L104.8,44.8L104.5,44.5L104.7,45.0L104.9,45.2L104.9,45.6L104.6,46.0L104.1,46.8L104.0,46.7L104.3,46.1L103.8,45.7L103.7,44.8L103.5,45.3L103.7,45.9L103.0,45.8L103.7,46.1L103.7,47.0L104.0,47.1L104.1,47.4L104.3,48.4L103.6,49.2L102.6,49.5L101.9,50.1L101.4,50.1L100.9,50.5L100.8,50.8L99.7,51.5L99.1,52.0L98.7,52.6L98.5,53.3L98.7,54.0L99.0,54.8L99.5,55.5L99.5,56.0L99.9,57.1L99.9,57.8L99.9,58.2L99.6,58.8L99.3,58.9L98.8,58.8L98.7,58.4L98.3,58.1L97.8,57.3L97.3,56.5L97.1,56.1L97.3,55.4L97.1,54.9L96.3,54.1L95.9,53.9L94.9,54.4L94.7,54.3L94.2,53.8L93.6,53.6L92.5,53.7L91.6,53.6L90.8,53.7L90.4,53.8L90.6,54.1L90.6,54.5L90.8,54.7L90.6,54.8L90.2,54.7L89.8,54.9L89.1,54.9L88.4,54.3L87.5,54.4L86.8,54.2L86.2,54.3L85.3,54.5L84.4,55.3L83.4,55.7L82.9,56.2L82.6,56.6L82.6,57.3L82.7,57.8L82.9,58.1L82.9,58.1L82.9,58.1L82.5,59.0L82.3,59.7L82.2,61.1L82.1,61.6L82.3,62.1L82.6,62.6L82.8,63.4L83.5,64.1L83.7,64.7L84.1,65.2L85.2,65.4L85.6,65.9L86.5,65.6L87.2,65.5L88.0,65.3L88.6,65.1L89.2,64.7L89.5,64.1L89.5,63.3L89.7,63.0L90.4,62.7L91.5,62.5L92.3,62.5L92.9,62.5L93.2,62.7L93.2,63.2L92.6,63.7L92.4,64.4L92.6,64.5L92.4,65.0L92.2,65.7L91.9,65.5L91.7,65.5L91.7,65.6L91.9,65.7L91.9,65.9L91.7,66.4L91.8,66.5L91.7,66.9L91.8,67.0L91.6,67.5L91.4,67.7L91.3,67.8L91.1,68.1L91.4,68.3L91.5,68.1L91.8,68.3L91.9,68.3L92.1,68.1L92.4,68.1L92.5,68.2L92.6,68.2L93.1,68.2L93.6,68.2L93.9,68.1L94.0,68.0L94.3,68.0L94.6,68.1L94.8,68.1L95.0,68.0L95.5,68.1L95.6,68.2L95.9,68.4L96.2,68.6L96.6,68.7L96.9,69.0L96.8,69.1L96.7,69.3L96.8,69.7L96.6,70.0L96.5,70.4L96.4,70.9L96.5,71.1L96.5,71.6L96.4,71.7L96.3,72.1L96.3,72.4L96.1,72.6L96.2,72.9L96.3,73.1L96.6,73.6L97.0,74.0L97.5,74.4L97.8,74.8L97.8,75.0L98.2,75.0L98.3,75.0L98.6,75.2L99.1,75.1L99.5,74.9L100.1,74.7L100.4,74.4L101.0,74.4L100.9,74.5L101.5,74.6L101.9,74.8L102.3,75.1L102.6,75.3L103.2,75.4L103.9,74.7L104.3,74.6L104.3,74.2L104.5,73.4L105.1,72.9L105.7,72.9L105.8,72.7L106.6,72.8L107.4,72.3L107.8,72.0L108.2,71.6L108.6,71.6L108.9,71.9L108.7,72.2L108.6,72.5L108.1,72.6L108.4,73.0L108.4,73.6L107.9,74.1L108.3,74.9L108.7,74.9L109.0,74.1L108.6,73.8L108.6,73.0L109.8,72.6L109.7,72.2L110.1,71.8L110.4,72.5L111.1,72.6L111.8,73.1L111.8,73.4L112.7,73.5L113.8,73.4L114.3,73.8L115.1,73.9L115.7,73.6L115.7,73.4L116.9,73.3L118.1,73.3L117.3,73.6L117.6,74.1L118.4,74.1L119.2,74.6L119.3,75.4L119.8,75.4L120.2,75.6L120.9,76.0L121.5,76.7L121.5,77.2L121.9,77.2L122.5,77.7L122.9,78.0L124.1,78.2L124.2,78.0L125.0,78.0L126.0,78.2L126.4,78.4L127.1,78.6L128.2,79.4L128.3,79.8L128.7,79.8L128.9,80.3L129.5,82.1L130.0,82.3L130.1,83.0L129.3,83.8L129.6,84.1L131.4,84.2L131.4,85.2L132.2,84.6L133.4,84.9L135.1,85.6L135.6,86.1L135.4,86.7L136.6,86.4L138.5,86.9L140.0,86.9L141.5,87.7L142.8,88.8L143.5,89.1L144.4,89.1L144.8,89.5L145.1,90.7L145.3,91.3L144.9,93.0L144.4,93.6L143.0,95.0L142.3,96.2L141.6,97.0L141.3,97.1L141.0,97.8L141.1,99.7L140.8,101.2L140.7,101.9L140.4,102.3L140.2,103.6L139.2,104.9L139.1,105.9L138.2,106.4L138.0,107.0L136.9,107.0L135.4,107.4L134.6,107.8L133.5,108.1L132.4,108.9L131.5,109.9L131.4,110.6L131.5,111.2L131.3,112.2L131.1,112.7L130.4,113.2L129.3,115.0L128.4,115.8L127.7,116.2L127.3,117.2L126.6,117.8L126.2,118.4L125.1,119.0L124.3,118.8L123.8,118.9L122.9,118.4L122.2,118.5L121.6,117.9L121.5,118.4L122.8,119.3L122.6,120.0L123.3,120.4L123.2,120.9L122.3,122.2L120.8,122.7L118.8,122.9L117.7,122.8L117.9,123.4L117.7,124.2L117.9,124.7L117.3,125.0L116.2,125.2L115.3,124.8L114.9,125.1L115.0,126.1L115.7,126.4L116.2,126.0L116.5,126.6L115.6,126.9L114.8,127.5L114.7,128.5L114.4,129.0L113.5,129.0L112.7,129.6L112.4,130.3L113.4,131.0L114.4,131.2L114.0,132.1L112.8,132.7L112.2,133.9L111.3,134.3L110.9,134.7L111.2,135.8L111.8,136.3L111.4,136.3L110.5,136.3L110.1,136.5L109.2,136.9L109.0,137.8L108.6,137.9L107.4,137.5L106.3,136.8L105.1,136.3L104.7,135.6L105.0,135.0L104.5,134.4L104.4,132.7L104.8,131.7L105.9,130.9L104.4,130.6L105.3,129.8L105.6,128.1L106.8,128.5L107.3,126.4L106.6,126.1L106.3,127.4L105.7,127.2L106.0,125.8L106.3,123.9L106.8,123.3L106.5,122.3L106.4,121.2L106.8,121.1L107.4,119.5L108.1,117.9L108.6,116.4L108.3,114.9L108.6,114.1L108.5,112.9L109.1,111.6L109.3,109.7L109.6,107.6L109.9,105.4L109.8,103.8L109.6,102.3L108.6,101.8L108.5,101.4L106.6,100.4L104.8,99.3L104.0,98.6L103.6,97.8L103.7,97.5L102.9,96.2L101.9,94.4L101.0,92.4L100.6,91.9L100.2,91.2L99.5,90.5L98.8,90.1L99.1,89.7L98.6,88.7L98.9,88.0L99.7,87.4L100.2,86.7L100.0,86.2L99.6,86.7L99.0,86.2L99.2,86.0L99.1,85.1L99.4,84.9L99.6,84.3L100.0,83.6L99.9,83.2L100.5,83.0L101.1,82.6L101.0,82.3L101.4,82.2L101.3,81.7L101.6,81.4L102.1,81.3L102.5,80.7L102.9,80.2L102.5,79.9L102.7,79.3L102.5,78.4L102.7,78.2L102.5,77.3L102.1,76.8L101.8,76.5L101.6,75.9L101.8,75.7L101.6,75.6L101.4,75.3L100.9,75.0L100.4,75.1L100.2,75.4L99.8,75.7L99.6,75.7L99.5,75.9L100.0,76.5L99.7,76.6L99.6,76.7L99.1,76.8L98.9,76.2L98.8,76.4L98.5,76.3L98.3,75.9L97.9,75.8L97.6,75.7L97.2,75.7L97.1,75.9L97.0,75.8L96.5,75.6L96.3,75.3L96.4,75.2L96.4,74.9L96.1,74.7L95.7,74.5L95.4,74.4L95.3,74.1L95.0,73.9L95.1,74.2L94.9,74.4L94.7,74.2L94.3,74.1L94.2,73.9L94.2,73.6L94.3,73.2L94.1,73.1L94.3,72.9L93.9,72.6L93.5,72.2L93.3,71.9L92.8,71.5L92.3,71.1L92.4,70.9L92.6,71.1L92.7,71.0L92.5,70.7L92.2,70.6L92.1,70.9L91.5,70.8L91.2,70.7L90.7,70.5L90.2,70.5L89.9,70.3L89.4,70.1L88.8,70.1L88.3,69.9L87.8,69.5L86.6,68.4L86.1,68.1L85.3,67.8L84.7,67.9L83.9,68.2L83.4,68.3L82.7,68.1L82.0,67.9L81.1,67.4L80.3,67.3L79.2,66.8L78.3,66.4L78.1,66.1L77.5,66.0L76.5,65.7L76.1,65.3L75.0,64.7L74.5,64.1L74.3,63.6L74.6,63.5L74.5,63.2L74.7,62.9L74.7,62.6L74.4,62.1L74.3,61.7L74.0,61.2L73.1,60.2L72.1,59.5L71.6,58.8L70.7,58.4L70.6,58.2L70.7,57.6L70.2,57.3L69.6,56.8L69.4,56.1L68.8,56.1L68.2,55.5L67.8,55.0L67.7,54.7L67.2,54.0L66.8,53.2L66.9,52.8L66.1,52.4L65.8,52.5L65.2,52.2L65.1,52.6L65.2,53.1L65.3,53.8L65.7,54.2L66.4,54.9L66.6,55.2L66.7,55.2L66.9,55.6L67.0,55.6L67.2,56.2L67.5,56.5L67.8,56.8L68.4,57.3L68.7,58.3L69.0,58.7L69.3,59.2L69.3,59.7L69.8,59.7L70.2,60.2L70.6,60.6L70.6,60.8L70.1,61.2L70.0,61.2L69.7,60.6L69.1,60.0L68.3,59.5L67.8,59.3L67.9,58.5L67.7,58.0L67.2,57.7L66.5,57.2L66.4,57.4L66.2,57.1L65.5,56.9L64.9,56.3L65.0,56.2L65.4,56.3L65.8,55.9L65.8,55.4L65.1,54.7L64.5,54.4L64.1,53.8L63.7,53.2L63.3,52.4L62.9,51.5L62.7,51.0L62.1,50.4L61.6,50.3L61.5,50.0L60.9,49.9L60.6,49.7L59.6,49.6L59.4,49.4L59.3,48.8L58.3,47.8L57.5,46.4L57.5,46.2L57.0,45.9L56.3,45.0L56.1,44.2L55.6,43.7L55.8,42.9L55.8,42.0L55.5,41.2L55.9,40.3L56.1,38.5L55.9,37.1L55.6,36.3L55.3,35.8L55.4,35.6L56.9,36.0L57.4,36.9L57.7,36.6L57.5,35.8L57.2,35.0L57.0,35.0L55.1,34.0L54.4,33.6L52.6,33.2L52.0,32.3L52.1,31.7L50.9,31.2L50.7,30.4L49.5,29.7L49.5,29.2L48.9,28.8L48.0,28.5L47.8,27.6L46.5,26.8L45.9,25.9L45.0,25.8L43.4,25.8L42.2,25.5L40.1,24.5L39.2,24.3L37.4,23.9L36.0,24.0L34.1,23.5L32.9,23.1L31.8,23.3L32.0,24.0L31.4,24.1L30.3,24.3L29.4,24.6L28.3,24.8L28.1,24.3L28.6,23.3L29.7,23.0L29.4,22.7L28.1,23.3L27.4,23.9L26.0,24.6L26.7,25.1L25.8,25.9L24.7,26.3L23.7,26.6L23.4,27.0L21.9,27.5L21.6,28.0L20.4,28.4L19.7,28.4L18.8,28.6L17.8,29.0L16.9,29.3L15.2,29.6L15.1,29.4L16.2,29.0L17.1,28.7L18.2,28.1L19.4,28.0L19.9,27.6L21.3,27.0L21.5,26.8L22.3,26.4L22.4,25.7L23.0,25.1L21.8,25.4L21.5,25.2L20.9,25.6L20.3,25.1L20.0,25.4L19.6,24.9L18.6,25.3L18.0,25.3L17.9,24.7L18.1,24.4L17.5,24.0L16.2,24.2L15.3,23.7L14.7,23.5L14.6,22.9L13.9,22.5L14.3,21.9L15.1,21.4L15.4,20.9L16.2,20.8L16.9,20.9L17.7,20.5L18.5,20.5L19.2,20.2L19.0,19.8L18.5,19.6L19.2,19.2L18.6,19.2L17.5,19.4L17.2,19.7L16.5,19.4L15.0,19.6L13.6,19.3L13.2,18.9L11.9,18.3L13.3,17.9L15.5,17.4L16.3,17.4L16.2,17.9L18.3,17.9L17.5,17.3L16.3,16.9L15.6,16.4L14.6,16.0L13.2,15.6L13.8,15.1L15.6,15.1L16.8,14.6L17.1,14.1L18.1,13.7L19.1,13.6L21.0,13.1L21.9,13.2L23.4,12.6L24.9,12.9L25.7,13.3L26.1,13.1L27.8,13.2L27.7,13.4L29.3,13.6L30.3,13.5L32.4,13.8L34.3,13.9L35.1,14.0L36.4,13.8L37.9,14.1L39.0,14.3L40.9,14.5L42.5,15.0L43.5,15.1L44.4,14.7L45.6,14.4L47.1,14.5L48.6,14.1L50.2,13.8L50.9,14.2L51.6,14.0L51.9,13.5L52.6,13.6L54.2,14.5L55.6,13.8L55.7,14.6L56.9,14.4L57.3,14.1L58.5,14.2L60.1,14.6L62.4,15.0L63.8,15.2L64.8,15.1L66.1,15.6L64.7,16.1L66.5,16.3L69.2,16.2L70.1,16.0L71.1,16.6L72.2,16.1L71.2,15.7L71.8,15.3L73.0,15.3L73.8,15.2L74.7,15.4L75.7,16.0L76.8,15.9L78.5,16.4L80.1,16.2L81.6,16.2L81.4,15.6L82.3,15.4L83.9,15.8L83.9,16.7L84.5,15.9L85.3,15.9L85.8,14.9L84.7,14.3L83.5,13.9L83.6,12.8L84.8,12.1L86.1,12.2L87.1,12.7L88.5,13.8L87.6,14.3L89.5,14.5ZM65.8,10.9L65.3,11.3L67.6,11.0L68.9,11.5L70.1,11.0L71.0,11.4L71.8,12.3L72.3,11.9L71.6,10.9L72.5,10.8L73.5,10.9L74.6,11.3L75.2,12.3L75.5,13.0L77.2,13.5L79.0,14.0L78.9,14.4L77.3,14.5L77.9,14.9L77.6,15.2L75.8,15.1L74.0,14.8L72.9,14.9L71.0,15.2L68.0,15.4L66.7,15.5L66.1,15.0L64.8,14.7L63.9,14.8L62.7,14.0L63.3,13.9L64.9,13.8L66.3,13.8L67.6,13.6L65.7,13.4L63.5,13.5L62.1,13.5L61.6,13.1L63.9,12.7L62.3,12.7L60.6,12.4L61.4,11.7L62.1,11.3L64.8,10.7L65.8,10.9ZM75.5,10.6L74.6,11.2L73.1,10.5L73.4,10.4L74.7,10.4L75.5,10.6ZM103.7,10.9L103.7,11.2L102.7,11.1L101.6,11.1L100.5,11.3L100.2,11.2L99.1,10.7L99.2,10.3L99.6,10.2L101.9,10.3L103.7,10.9ZM93.4,10.8L94.2,11.5L95.1,10.7L97.7,10.2L99.4,11.3L99.3,11.9L101.2,11.6L102.2,11.3L104.4,11.8L105.8,12.2L105.9,12.7L107.8,12.4L108.8,13.1L111.2,13.5L112.1,13.9L113.0,14.8L111.2,15.3L113.6,15.9L115.1,16.2L116.6,17.1L118.1,17.1L117.8,17.8L116.1,19.0L114.9,18.6L113.3,17.6L112.0,17.7L111.9,18.3L112.9,18.9L114.3,19.4L114.7,19.6L115.3,20.6L115.0,21.3L113.7,21.1L111.2,20.3L112.6,21.1L113.7,21.7L113.8,22.1L111.1,21.7L109.0,21.1L107.8,20.6L108.1,20.3L106.6,19.8L105.2,19.3L105.2,19.6L102.3,19.8L101.4,19.4L102.1,18.7L104.0,18.7L106.0,18.5L105.7,18.2L106.1,17.7L107.3,16.7L107.1,16.3L106.7,15.9L105.2,15.4L103.1,15.1L103.8,14.9L102.7,14.2L101.8,14.2L101.0,13.8L100.5,14.1L98.7,14.3L95.1,14.0L92.9,13.7L91.3,13.6L90.5,13.2L91.5,12.8L90.1,12.8L89.8,11.8L90.6,10.9L91.6,10.5L94.2,10.2L93.4,10.8ZM79.6,10.2L80.8,10.4L82.6,10.2L82.9,10.5L81.9,11.0L83.5,11.4L83.3,12.3L81.6,12.7L80.7,12.6L80.0,12.3L77.5,11.5L77.5,11.2L79.6,11.3L78.5,10.6L79.6,10.2ZM323.6,10.8L322.1,10.8L320.0,10.7L319.9,10.6L320.8,10.2L322.1,10.1L323.5,10.5L323.6,10.8ZM86.8,11.2L85.7,12.0L84.6,11.9L84.0,11.1L84.0,10.6L84.5,10.1L85.5,9.9L87.6,9.9L89.5,10.1L88.0,11.0L86.8,11.2ZM59.5,12.6L56.9,13.1L56.4,12.7L54.1,12.1L54.4,11.8L55.2,11.0L56.1,10.3L55.1,9.7L58.5,9.6L59.9,9.8L62.4,9.8L63.4,10.1L64.5,10.5L63.2,10.8L60.8,11.5L59.5,12.2L59.5,12.6ZM330.7,8.9L329.6,9.3L328.0,9.2L326.1,8.8L326.4,8.5L328.2,8.7L330.7,8.9ZM86.4,9.0L85.8,9.4L84.4,9.3L83.2,9.1L83.7,8.6L85.1,8.4L86.0,8.7L86.4,9.0ZM325.1,8.4L324.3,9.2L320.6,9.2L319.0,9.4L317.0,8.7L317.5,8.1L318.8,7.9L321.5,7.9L325.1,8.4ZM81.5,7.3L82.3,7.7L82.3,8.3L81.8,9.0L80.2,9.1L79.1,8.9L79.1,8.4L77.5,8.4L77.4,7.7L78.5,7.7L80.0,7.4L81.4,7.4L81.5,7.3ZM71.8,7.8L72.2,8.2L73.1,8.0L74.1,8.0L74.3,8.5L73.7,9.0L70.3,9.2L67.8,9.6L66.3,9.6L66.1,9.3L68.2,8.8L63.7,9.0L62.3,8.8L63.7,7.8L64.6,7.5L67.4,7.9L69.2,8.5L70.9,8.5L69.5,7.6L70.4,7.2L71.5,7.3L71.8,7.8ZM237.5,13.3L236.9,13.4L233.7,13.2L233.4,12.8L231.6,12.5L231.5,12.0L232.5,11.8L232.4,11.2L234.4,10.4L233.5,10.3L235.9,9.4L235.6,8.9L237.9,8.4L241.2,7.7L244.5,7.6L246.2,7.2L248.2,7.1L248.9,7.5L248.2,7.8L244.6,8.3L241.6,8.7L238.5,9.7L237.0,10.7L235.4,11.6L235.6,12.5L237.5,13.3ZM85.3,6.9L86.4,7.2L88.4,7.2L89.3,7.6L89.0,7.9L90.2,8.2L90.8,8.4L92.2,8.4L93.6,8.5L95.2,8.3L97.2,8.2L98.9,8.3L99.9,8.7L100.2,9.1L99.5,9.3L98.1,9.6L96.8,9.4L93.9,9.6L91.8,9.6L90.2,9.5L87.6,9.2L87.2,8.6L87.1,8.1L86.1,7.7L84.0,7.6L82.9,7.2L83.3,6.8L85.3,6.9ZM63.8,6.4L63.7,7.1L62.9,7.5L62.0,7.5L60.1,7.9L58.5,8.1L57.1,7.9L57.1,7.9L58.8,7.1L60.9,6.5L62.4,6.5L63.8,6.4ZM287.0,7.0L287.2,7.5L288.2,7.3L291.1,7.3L293.3,7.8L294.1,8.2L293.9,8.7L292.8,9.0L290.2,9.5L289.4,9.8L290.6,10.0L292.1,10.2L293.0,10.0L293.5,10.7L294.0,10.4L295.6,10.2L298.8,10.4L299.0,10.9L303.2,11.0L303.3,10.3L305.4,10.4L307.0,10.4L308.6,11.0L309.1,11.6L308.5,12.0L309.7,12.8L311.3,13.2L312.3,12.2L313.9,12.6L315.6,12.3L317.5,12.7L318.2,12.4L319.9,12.5L319.1,11.6L320.5,11.2L329.5,11.8L330.4,12.4L333.0,13.2L337.0,13.0L339.0,13.1L339.8,13.5L339.7,14.3L340.9,14.6L342.3,14.4L344.1,14.3L345.9,14.5L347.8,14.4L349.6,15.3L350.8,15.0L350.0,14.3L350.5,13.9L353.6,14.2L355.7,14.1L358.6,14.6L360.0,15.0L360.0,19.0L360.0,19.0L358.7,19.5L357.4,19.4L358.3,19.9L358.9,20.7L359.4,21.0L359.5,21.4L359.2,21.7L357.4,21.5L354.6,22.2L353.7,22.3L352.2,23.0L350.7,23.7L350.3,24.1L348.9,23.4L346.3,24.2L345.8,23.8L344.9,24.3L343.5,24.1L343.2,24.8L342.0,25.8L342.1,26.2L343.2,26.4L343.1,27.8L342.1,27.9L341.7,28.7L342.1,29.1L340.4,29.7L340.0,30.8L338.5,31.0L338.2,32.1L336.8,33.0L336.4,32.3L336.0,30.8L335.4,28.6L335.9,27.2L336.8,26.6L336.8,26.2L338.4,25.9L340.2,24.7L341.9,23.7L343.7,22.9L344.5,21.4L343.3,21.5L342.7,22.4L340.1,23.5L339.3,22.2L336.7,22.6L334.2,24.2L335.0,24.9L332.8,25.1L331.3,25.2L331.3,24.5L329.8,24.3L328.5,24.8L325.5,24.7L322.2,25.0L319.0,26.9L315.1,29.3L316.7,29.4L317.2,30.0L318.2,30.2L318.8,29.7L319.9,29.8L321.3,30.9L321.4,31.8L320.6,32.8L320.5,34.0L320.1,35.6L318.6,37.0L318.2,37.7L316.9,38.9L315.5,40.0L314.9,40.6L313.5,41.2L312.9,41.2L312.3,40.7L310.9,41.4L310.8,41.8L310.4,41.7L310.0,42.1L309.7,42.4L309.7,43.1L309.2,43.3L309.0,43.5L308.6,43.8L308.0,44.0L307.5,44.2L307.5,44.7L307.4,44.8L307.8,44.9L308.3,45.4L309.2,46.6L309.5,47.2L309.5,48.4L309.1,48.9L308.2,49.1L307.4,49.5L306.5,49.6L306.4,49.1L306.6,48.3L306.1,47.3L306.9,47.1L306.2,46.3L305.7,46.1L305.6,46.2L305.3,46.3L305.2,46.1L305.0,46.1L304.7,45.9L305.0,45.5L305.2,45.3L305.1,45.2L305.4,44.6L305.3,44.4L304.7,44.3L304.3,44.1L302.9,44.4L302.1,44.8L301.1,45.1L301.6,44.6L301.4,44.2L302.2,43.6L301.6,43.1L300.8,43.4L299.6,44.1L299.0,44.7L298.0,44.8L297.5,45.3L298.1,45.9L298.9,46.1L298.9,46.6L299.7,46.8L300.8,46.1L301.7,46.5L302.4,46.5L302.5,47.1L301.1,47.3L300.6,47.9L299.7,48.4L299.2,49.1L300.2,49.6L300.6,50.6L301.2,51.5L301.9,52.3L301.9,53.1L301.3,53.3L301.5,53.9L302.1,54.2L301.9,55.0L301.7,55.8L301.1,55.9L300.4,56.9L299.6,58.3L298.7,59.5L297.3,60.4L295.9,61.2L294.8,61.3L294.2,61.8L293.8,61.5L293.2,61.9L291.8,62.4L290.8,62.6L290.4,63.7L289.9,63.7L289.6,63.0L289.9,62.6L288.5,62.3L288.1,62.4L286.7,63.3L285.9,64.2L285.7,64.9L286.4,66.0L287.4,67.3L288.3,67.9L288.9,68.7L289.3,70.6L289.2,72.3L288.4,73.0L287.2,73.6L286.4,74.5L285.2,75.4L284.8,74.8L285.1,74.1L284.3,73.5L283.5,73.4L283.1,72.8L282.6,71.8L281.7,71.4L280.8,71.4L281.0,70.6L280.1,70.6L280.0,71.7L279.5,73.2L279.2,74.0L279.2,74.8L279.9,74.8L280.3,75.7L280.5,76.6L281.0,77.1L281.6,77.3L282.1,77.8L282.4,77.9L283.0,78.5L283.4,79.1L283.4,79.8L283.3,80.3L283.4,80.6L283.5,81.2L283.9,81.5L284.2,82.4L284.2,82.7L283.5,82.8L282.6,82.0L281.4,81.2L281.3,80.7L280.7,80.1L280.6,79.2L280.2,78.7L280.3,78.0L280.1,77.5L279.7,77.2L279.5,76.7L279.0,76.1L278.5,75.6L278.3,76.2L278.2,75.6L278.3,75.0L278.6,74.1L278.5,73.3L278.8,72.6L278.4,72.0L278.5,70.9L278.1,70.4L277.8,69.2L277.6,67.9L277.2,67.1L276.5,67.6L275.4,68.3L274.8,68.2L274.2,68.0L274.5,66.7L274.3,65.8L273.5,64.6L273.7,64.3L273.1,64.1L272.4,63.3L272.1,62.8L272.0,62.3L271.8,61.8L271.4,61.2L270.5,61.2L270.6,61.6L270.3,62.2L269.8,62.0L269.7,62.1L269.4,62.0L269.0,61.9L268.9,62.3L268.2,62.3L267.0,62.5L267.0,63.3L266.5,63.8L265.1,64.5L263.9,65.7L263.2,66.3L262.2,67.0L262.2,67.4L261.7,67.7L260.8,68.0L260.3,68.1L260.0,68.9L260.2,70.2L260.3,71.0L259.9,71.9L259.9,73.6L259.3,73.7L258.9,74.5L259.2,74.8L258.3,75.1L257.9,75.7L257.5,76.0L256.6,75.1L256.1,73.7L255.7,72.7L255.4,72.2L254.9,71.3L254.6,70.0L254.4,69.4L253.5,68.0L253.1,66.1L252.8,64.8L252.8,63.6L252.6,62.6L251.2,63.2L250.5,63.1L249.2,61.9L249.6,61.5L249.3,61.2L248.2,60.3L247.4,60.1L247.1,59.3L246.4,58.6L244.5,58.8L242.9,58.8L241.5,58.9L239.6,58.6L238.5,58.4L237.4,58.3L237.0,57.0L236.5,56.9L235.7,57.0L234.7,57.5L233.5,57.2L232.5,56.4L231.5,56.1L230.9,55.2L230.1,53.9L229.6,54.0L228.9,53.7L228.6,54.1L228.0,54.0L228.2,54.5L228.1,54.7L228.4,55.4L228.8,56.3L229.3,56.5L229.5,56.9L230.2,57.3L230.2,57.7L230.1,58.1L230.2,58.4L230.5,58.7L230.7,59.0L230.8,59.2L230.7,58.5L231.0,58.0L231.3,57.9L231.6,58.2L231.6,58.8L231.4,59.4L231.6,59.8L231.8,59.7L231.8,60.0L232.6,59.8L233.4,59.8L234.0,59.9L234.7,59.2L235.4,58.6L236.1,57.9L236.4,57.6L236.5,57.7L236.4,58.1L236.3,58.3L236.4,59.1L236.8,59.8L237.4,60.1L238.1,60.3L238.7,60.4L239.2,61.0L239.5,61.3L239.8,61.5L239.8,61.7L239.4,62.3L239.3,62.6L238.9,62.9L238.5,63.6L238.0,63.5L237.8,63.8L237.7,64.3L237.8,64.9L237.7,65.1L237.2,65.1L236.6,65.4L236.5,65.9L236.3,66.1L235.7,66.1L235.3,66.4L235.3,66.8L234.8,67.0L234.2,67.0L233.6,67.3L233.1,67.3L232.4,67.6L232.2,68.1L232.2,68.4L231.2,68.8L229.6,69.3L228.7,70.0L228.2,70.1L227.9,70.0L227.4,70.4L226.7,70.6L225.9,70.7L225.6,70.7L225.4,71.0L225.1,71.0L225.0,71.3L224.5,71.3L224.2,71.4L223.5,71.4L223.2,70.8L223.3,70.2L223.1,69.9L222.9,69.2L222.6,68.8L222.8,68.7L222.7,68.3L222.8,68.1L222.8,67.7L222.6,67.2L222.3,66.9L222.3,66.5L221.8,66.2L221.2,65.3L220.9,64.5L220.2,63.8L219.8,63.7L219.1,62.7L219.0,62.0L219.1,61.4L218.5,60.3L218.0,59.9L217.5,59.7L217.2,59.1L217.2,58.9L216.9,58.4L216.6,58.2L216.2,57.4L215.6,56.6L215.1,55.9L214.6,55.9L214.8,55.4L214.8,55.0L215.0,54.6L214.9,54.5L214.6,54.9L214.4,55.7L214.2,56.2L213.9,56.4L213.6,56.0L213.1,55.6L212.4,54.1L212.3,54.2L212.7,55.3L213.3,56.3L214.1,57.9L214.5,58.4L214.8,59.0L215.7,60.1L215.5,60.2L215.5,60.9L216.7,61.8L216.9,62.0L217.2,63.0L217.0,63.2L217.1,64.2L217.5,65.4L217.9,65.6L218.4,66.0L219.0,67.2L219.3,68.1L219.8,68.6L221.2,69.5L221.7,70.1L222.3,70.7L222.6,71.0L223.1,71.3L223.3,71.6L223.3,72.0L222.7,72.3L223.1,72.5L223.5,72.7L223.7,73.1L224.1,73.6L224.6,73.6L225.6,73.3L226.6,73.2L227.5,72.9L228.0,72.8L228.4,72.6L228.9,72.6L229.3,72.6L229.7,72.4L230.3,72.3L230.7,72.0L231.1,72.0L231.1,72.3L231.0,72.8L231.0,73.4L230.8,73.7L230.6,74.8L230.1,75.9L229.5,77.2L228.6,78.7L227.7,79.8L226.6,81.1L225.6,82.0L224.1,82.9L223.1,83.7L222.0,84.9L221.8,85.4L221.6,85.7L220.9,86.1L220.6,86.5L220.3,86.6L220.1,87.3L219.8,87.7L219.6,88.3L219.2,88.7L218.7,89.9L218.8,90.5L219.4,90.8L219.5,91.1L219.2,91.7L219.3,92.0L219.2,92.5L219.5,93.1L219.9,94.1L220.3,94.3L220.5,94.8L220.4,95.8L220.6,96.6L220.6,98.2L220.8,98.7L220.5,99.4L220.1,100.1L219.5,100.7L218.5,101.1L217.4,101.6L216.3,102.7L215.9,102.8L215.2,103.6L214.8,103.8L214.7,104.5L215.2,105.3L215.4,105.8L215.4,106.1L215.6,106.1L215.5,107.1L215.4,107.5L215.6,107.7L215.5,108.1L215.0,108.5L214.2,108.8L213.0,109.4L212.6,109.7L212.7,110.1L212.9,110.2L212.8,110.7L212.6,111.5L212.5,112.3L212.2,112.8L211.5,113.3L211.3,113.4L210.9,113.9L210.6,114.4L210.1,115.1L208.9,116.2L208.2,116.8L207.5,117.2L206.4,117.6L205.9,117.7L205.8,117.9L205.2,117.8L204.7,118.0L203.6,117.8L203.0,117.9L202.6,117.9L201.5,118.3L200.7,118.4L200.1,118.8L199.6,118.8L199.2,118.5L198.9,118.4L198.4,118.0L198.4,118.1L198.2,117.9L198.3,117.3L197.9,116.6L198.2,116.4L198.2,115.7L197.6,114.7L197.1,113.9L197.1,113.9L196.3,112.6L195.6,111.8L195.2,111.1L195.0,110.1L194.7,109.4L194.4,107.9L194.4,106.7L194.3,106.1L193.9,105.7L193.4,104.9L192.8,103.7L192.6,103.0L191.8,102.1L191.7,101.3L191.6,100.7L191.8,99.8L192.1,98.9L192.2,98.4L192.5,97.5L192.7,97.1L193.3,96.5L193.6,96.0L193.7,95.3L193.7,94.7L193.4,94.4L193.1,93.8L192.9,93.2L192.9,93.0L193.2,92.6L192.9,91.6L192.7,90.9L192.2,90.3L192.3,90.1L192.2,89.8L191.9,89.0L191.1,88.0L190.1,87.0L189.4,86.1L188.8,85.1L188.8,84.8L189.0,84.5L189.3,83.7L189.5,83.0L189.3,82.8L189.6,81.7L189.8,80.9L189.4,80.3L188.9,80.1L188.7,79.6L188.5,79.5L188.5,79.2L187.5,79.6L187.1,79.5L186.7,79.8L185.9,79.7L185.4,79.1L185.0,78.4L184.3,77.7L183.6,77.7L182.7,77.7L181.9,77.9L181.1,78.1L179.5,78.7L178.9,79.0L178.0,79.3L177.1,79.0L176.7,79.0L176.0,78.8L175.4,78.8L174.2,79.0L173.5,79.3L172.5,79.7L172.3,79.6L172.0,79.6L171.0,79.2L170.1,78.4L169.2,77.9L168.6,77.2L168.3,77.1L167.6,76.7L167.1,76.2L166.9,75.8L166.8,75.1L166.3,74.5L165.9,74.1L165.7,74.0L165.4,73.8L165.3,73.3L165.2,73.1L164.9,73.0L164.3,72.5L163.9,72.5L163.7,72.2L163.7,72.0L163.4,71.8L163.3,71.6L163.2,70.8L163.3,70.4L162.9,69.6L162.4,69.3L162.8,69.1L163.3,68.4L163.5,67.9L163.5,67.3L163.7,66.8L163.9,65.9L163.7,64.9L163.6,64.4L163.7,63.9L163.5,63.4L162.9,63.0L163.0,62.6L163.0,62.1L163.4,61.8L163.7,61.3L163.7,61.0L164.0,60.3L164.6,59.6L164.9,59.5L165.2,58.9L165.2,58.4L165.6,57.7L166.2,57.4L166.9,56.4L167.4,56.0L168.3,55.9L169.1,55.2L169.6,54.9L170.4,54.1L170.2,52.8L170.6,52.0L170.7,51.4L171.3,50.8L172.3,50.3L173.1,49.9L173.8,48.9L174.1,48.2L174.8,48.2L175.4,48.7L176.4,48.6L177.4,48.8L177.8,48.8L178.8,48.3L179.9,48.1L180.5,47.7L181.5,47.4L183.2,47.2L184.8,47.1L185.3,47.3L186.3,46.9L187.3,46.9L187.7,47.1L188.4,47.1L189.5,46.6L190.2,46.8L190.2,47.3L191.0,46.9L191.1,47.1L190.6,47.6L190.6,48.1L190.9,48.3L190.8,49.2L190.1,49.7L190.3,50.2L190.9,50.2L191.1,50.7L191.5,50.9L192.7,51.2L193.1,51.1L193.9,51.3L195.2,51.7L195.7,52.6L196.6,52.8L198.0,53.2L199.1,53.7L199.6,53.5L200.1,53.0L199.8,52.2L200.1,51.8L200.9,51.3L201.5,51.2L202.9,51.4L203.2,51.8L203.6,51.8L203.9,52.0L204.9,52.1L205.2,52.4L206.5,52.4L207.5,52.7L208.5,53.0L208.9,53.1L209.7,52.8L210.1,52.5L211.0,52.4L211.7,52.6L212.0,53.1L212.2,52.7L213.0,53.0L213.8,53.0L214.3,52.8L214.6,52.5L214.5,52.4L214.8,51.9L215.0,51.2L215.1,50.9L215.1,50.9L215.5,50.1L216.0,49.4L216.0,49.4L215.9,48.6L216.1,48.2L215.8,47.7L216.2,47.3L215.6,47.4L214.7,47.2L214.0,47.8L212.5,47.9L211.7,47.4L210.6,47.3L210.4,47.7L209.7,47.9L208.7,47.3L207.6,47.3L207.0,46.3L206.3,45.8L206.8,45.0L206.2,44.5L207.3,43.6L208.8,43.5L209.2,42.8L211.1,42.9L212.3,42.3L213.5,42.0L215.2,42.0L216.9,42.7L218.3,43.1L219.5,42.9L220.4,43.0L221.6,42.5L221.7,42.0L221.5,41.4L220.9,41.0L220.3,40.9L220.0,40.6L218.7,39.7L217.5,39.3L216.7,38.8L217.4,38.6L218.2,37.8L217.7,37.4L219.1,37.0L219.1,36.7L218.2,36.9L217.4,37.0L216.8,37.3L215.8,37.4L215.0,37.7L215.0,38.3L215.5,38.6L216.5,38.5L216.3,38.9L215.2,39.1L213.9,39.6L213.3,39.4L213.5,39.0L212.5,38.7L212.6,38.5L213.6,38.1L213.3,37.9L211.7,37.7L211.7,37.3L210.7,37.4L210.4,38.0L209.6,38.7L209.6,39.0L209.1,39.2L208.8,39.1L208.6,40.3L208.0,40.7L207.7,41.4L208.0,42.0L208.1,42.4L209.0,42.7L208.8,42.9L207.6,43.0L207.2,43.3L206.4,43.8L206.0,43.4L206.1,43.2L205.4,43.1L204.9,43.1L203.7,43.3L204.4,43.9L203.9,44.0L203.3,44.0L202.8,43.5L202.6,43.7L202.8,44.3L203.4,44.8L203.0,45.0L203.5,45.5L204.0,45.8L204.0,46.3L203.1,46.1L203.4,46.6L202.8,46.7L203.2,47.6L202.5,47.6L201.7,47.2L201.3,46.4L201.1,45.7L200.7,45.2L200.2,44.7L200.2,44.4L200.0,44.3L200.0,44.1L199.4,43.7L199.3,43.3L199.4,42.6L199.5,42.3L199.4,42.1L199.2,42.0L198.9,41.7L198.5,41.5L197.5,41.1L196.9,40.8L196.0,40.5L195.2,39.8L195.4,39.7L194.9,39.3L194.9,38.9L194.3,38.8L194.0,39.2L193.7,38.9L193.7,38.5L193.7,38.5L193.9,38.4L193.1,38.3L192.3,38.6L192.4,39.1L192.3,39.4L192.6,39.9L193.5,40.4L194.0,41.2L195.1,42.0L195.9,42.0L196.2,42.3L195.9,42.5L196.8,42.8L197.5,43.1L198.4,43.6L198.5,43.8L198.3,44.2L197.7,43.7L196.9,43.6L196.4,44.2L197.2,44.6L197.1,45.1L196.6,45.2L196.1,46.0L195.7,46.1L195.7,45.8L195.9,45.2L196.1,45.0L195.7,44.5L195.4,44.0L195.0,43.8L194.7,43.4L194.1,43.2L193.6,42.8L192.9,42.7L192.1,42.3L191.2,41.6L190.5,41.1L190.2,40.1L189.7,40.0L188.9,39.6L188.4,39.8L187.9,40.2L187.4,40.3L186.5,40.9L184.6,40.6L183.1,40.9L183.0,41.5L183.0,42.1L182.1,42.8L180.8,43.0L180.7,43.3L180.1,43.9L179.7,44.7L180.1,45.3L179.5,45.7L179.3,46.4L178.6,46.6L177.9,47.3L176.6,47.3L175.6,47.3L175.0,47.7L174.6,48.1L174.1,48.0L173.8,47.6L173.5,47.1L172.5,46.9L172.1,47.2L171.6,47.0L171.1,47.1L171.3,46.3L171.2,45.7L170.7,45.6L170.5,45.3L170.6,44.6L171.0,44.2L171.0,43.8L171.2,43.2L171.2,42.8L171.0,42.5L171.0,42.1L171.0,41.4L170.6,41.0L172.0,40.3L173.2,40.4L174.6,40.4L175.7,40.6L176.5,40.5L178.1,40.6L178.6,40.0L178.8,38.0L177.8,36.9L177.0,36.4L175.5,36.0L175.4,35.3L176.7,35.1L178.4,35.4L178.1,34.2L179.0,34.7L181.3,33.9L181.6,33.1L182.5,32.9L183.3,32.7L183.8,32.4L184.7,30.9L186.1,30.5L186.9,30.5L187.1,30.3L187.9,30.3L188.1,30.5L188.8,30.0L188.6,29.6L188.5,29.0L188.1,28.5L188.1,27.5L188.3,27.2L188.5,26.9L189.4,26.8L189.8,26.6L190.6,26.3L190.5,26.8L190.3,27.1L190.4,27.4L190.9,27.5L190.7,27.9L190.4,27.8L189.7,28.5L189.9,29.0L189.9,29.4L191.0,29.6L190.9,30.0L192.0,29.8L192.5,29.5L193.6,29.9L194.1,30.2L194.8,29.9L196.4,29.5L197.6,29.1L198.6,29.3L198.7,29.6L199.7,29.6L199.9,29.1L201.3,28.8L201.1,28.0L201.1,27.2L201.6,26.6L202.5,26.2L203.3,27.0L204.1,27.0L204.3,26.2L204.4,25.6L204.1,25.7L203.4,25.4L203.3,24.8L204.6,24.5L205.9,24.4L206.9,24.6L208.0,24.5L209.1,24.0L208.1,23.5L206.3,23.6L204.5,23.9L202.9,24.2L202.3,23.6L201.3,23.3L201.5,22.3L201.1,21.4L201.5,20.8L202.4,20.2L204.7,19.1L205.4,18.9L205.3,18.5L203.9,18.0L202.2,18.3L201.2,19.0L201.4,19.6L199.8,20.4L197.8,21.3L197.1,22.7L197.8,23.4L198.8,23.9L197.9,25.0L196.8,25.3L196.4,27.0L195.9,27.9L194.7,27.8L194.1,28.6L192.9,28.6L192.6,27.7L191.8,26.6L191.0,25.1L190.4,24.5L188.4,25.7L187.0,25.9L185.7,25.4L185.3,24.3L185.0,22.0L185.9,21.4L188.6,20.5L190.5,19.5L192.4,18.1L194.8,16.2L196.4,15.4L199.2,14.2L201.4,13.7L203.0,13.8L204.5,13.0L206.4,13.0L208.2,12.8L211.3,13.5L210.0,13.8L211.1,14.4L212.1,14.1L213.8,14.7L216.5,14.9L220.3,16.1L221.1,16.5L221.1,17.2L220.0,17.7L218.4,18.0L213.9,17.2L213.2,17.4L214.8,18.1L214.9,19.6L216.2,19.9L217.0,20.2L217.1,19.7L216.5,19.2L217.2,18.9L219.6,19.5L220.4,19.2L219.8,18.5L222.1,17.5L223.0,17.6L223.9,17.9L224.5,17.2L223.7,16.6L224.2,16.0L223.5,15.4L226.3,15.7L226.8,16.3L225.6,16.4L225.6,17.0L226.3,17.3L227.9,17.1L228.1,16.5L230.2,16.0L233.7,15.1L234.5,15.2L233.5,15.8L234.7,15.9L235.4,15.6L237.3,15.5L238.8,15.1L239.9,15.7L241.1,15.1L240.0,14.5L240.6,14.1L243.5,14.5L244.9,14.8L248.5,15.9L249.2,15.4L248.2,14.9L248.1,14.6L246.9,14.5L247.3,14.1L246.7,13.3L246.7,13.0L248.5,12.1L249.2,11.2L249.9,11.0L252.6,11.2L252.8,11.8L251.8,12.6L252.5,12.9L252.8,13.6L252.6,15.0L253.7,15.6L253.2,16.3L251.3,17.7L252.4,17.8L252.8,17.5L253.9,17.2L254.2,16.7L255.1,16.2L254.5,15.7L254.9,15.0L253.8,14.9L253.6,14.4L254.4,13.4L253.1,12.6L254.9,11.9L254.7,11.2L255.2,11.1L255.7,11.7L255.3,12.7L256.4,12.8L255.9,12.1L257.6,11.7L259.7,11.7L261.5,12.2L260.6,11.4L260.5,10.4L262.3,10.1L264.7,10.2L266.8,10.1L266.0,9.5L267.2,8.9L268.3,8.9L270.3,8.4L272.9,8.2L273.2,8.0L275.9,7.9L276.7,8.1L278.9,7.6L280.8,7.6L281.0,7.1L282.0,6.7L284.4,6.3L286.1,6.6L284.7,6.9L287.0,7.0ZM229.1,42.7L229.6,43.4L230.1,43.5L230.4,43.7L229.6,43.8L229.4,44.6L229.2,45.0L228.9,45.2L228.9,45.7L229.2,46.4L230.1,46.6L230.8,47.1L232.3,47.3L233.8,47.0L233.9,46.8L233.7,46.1L233.9,45.0L233.1,44.7L233.4,44.0L232.7,44.0L232.9,43.1L233.9,43.4L234.7,43.0L234.0,42.4L233.7,41.9L232.9,42.1L232.8,42.9L232.5,42.2L232.4,42.0L232.7,41.6L232.5,41.2L231.3,40.9L230.9,40.0L230.3,39.7L230.3,39.4L231.3,39.5L231.3,38.8L232.2,38.6L233.0,38.7L233.2,37.8L233.0,37.1L232.0,37.2L231.2,37.0L230.0,37.4L229.1,37.6L228.6,38.2L227.7,38.4L226.7,39.4L227.6,40.3L227.5,41.0L228.6,42.2L229.1,42.7ZM86.2,6.5L85.7,6.5L83.8,6.4L83.6,6.2L85.6,6.2L86.3,6.4L86.2,6.5ZM69.8,6.3L67.9,6.6L66.5,6.3L67.3,5.9L68.7,5.8L70.1,6.0L69.8,6.3ZM204.7,6.1L202.5,6.6L200.7,6.3L201.4,6.1L200.8,5.7L202.9,5.5L203.3,5.9L204.7,6.1ZM70.3,5.4L69.1,5.6L67.5,5.6L67.5,5.4L68.5,5.2L69.0,5.2L70.3,5.4ZM84.2,5.9L82.7,6.1L81.9,5.9L81.4,5.5L81.4,5.1L82.7,5.2L83.2,5.2L84.4,5.6L84.2,5.9ZM79.9,5.7L80.3,6.1L78.7,6.0L77.1,5.7L74.8,5.6L75.8,5.3L74.6,5.1L74.5,4.7L76.5,4.8L79.2,5.2L79.9,5.7ZM285.1,5.7L279.4,6.1L281.3,4.8L282.1,4.7L282.8,4.7L285.4,5.3L285.1,5.7ZM198.3,4.3L201.5,5.0L199.0,5.4L198.5,6.2L197.6,6.4L197.1,7.2L195.9,7.2L193.8,6.6L194.7,6.3L193.2,6.0L191.2,5.1L190.4,4.3L193.2,4.0L193.7,4.3L195.1,4.3L195.5,4.0L197.0,3.9L198.3,4.3ZM205.4,3.6L207.4,3.9L205.9,4.5L203.0,4.6L200.1,4.4L199.9,4.2L198.5,4.1L197.4,3.7L200.5,3.4L201.9,3.6L202.9,3.3L205.4,3.6ZM231.1,3.5L229.8,3.6L228.9,3.7L228.8,3.8L227.6,4.0L226.5,3.8L227.1,3.4L224.8,3.4L226.8,3.2L228.3,3.2L228.5,3.5L229.1,3.2L230.0,3.1L231.5,3.3L231.1,3.5ZM279.9,5.1L277.8,5.2L275.0,5.0L273.3,4.6L272.5,3.9L271.2,3.7L273.8,3.0L275.9,2.7L277.9,3.3L280.2,4.2L279.9,5.1ZM93.0,4.3L94.2,4.7L92.8,5.0L91.0,5.7L89.2,5.8L87.1,5.7L86.0,5.2L86.1,4.9L86.9,4.6L85.0,4.6L83.9,4.3L83.3,3.8L84.0,3.4L84.7,3.1L85.7,3.0L85.3,2.8L87.6,2.7L88.9,3.3L90.5,3.5L92.2,3.7L93.0,4.3ZM111.5,0.9L114.2,1.0L116.3,1.1L118.2,1.4L118.1,1.6L115.7,2.1L113.2,2.3L112.3,2.5L114.5,2.5L112.2,3.1L110.5,3.4L108.8,4.2L106.8,4.4L106.1,4.6L103.1,4.7L104.5,4.8L103.8,5.0L104.6,5.5L103.7,5.8L102.1,6.1L101.6,6.5L100.2,6.8L100.4,7.0L102.1,7.0L102.1,7.2L99.4,7.8L96.8,7.5L93.9,7.7L92.4,7.6L90.5,7.5L90.4,7.0L92.2,6.8L91.7,6.1L92.3,6.0L95.0,6.5L93.7,5.8L92.0,5.6L92.8,5.2L94.6,5.0L94.9,4.7L93.5,4.3L93.1,3.7L95.8,3.8L96.6,3.9L98.2,3.5L95.9,3.4L92.4,3.5L90.6,3.1L89.8,2.7L88.6,2.4L88.4,2.1L89.9,1.9L91.1,1.9L93.0,1.7L94.5,1.3L95.7,1.4L96.8,1.7L97.6,1.1L98.9,1.0L100.7,0.9L103.8,0.8L104.3,0.9L107.2,0.8L109.3,0.8L111.5,0.9ZM152.9,0.5L159.2,1.3L157.3,1.7L153.5,1.7L148.1,1.8L148.6,2.0L152.1,1.9L155.2,2.2L157.1,1.9L157.9,2.3L156.8,2.8L159.4,2.5L164.2,2.1L167.2,2.3L167.8,2.7L163.7,3.4L163.2,3.7L160.0,3.8L162.3,3.9L161.1,4.6L160.3,5.2L160.3,6.4L161.5,7.0L160.0,7.1L158.3,7.4L160.2,7.9L160.4,8.8L159.3,8.8L160.6,9.7L158.4,9.8L159.6,10.2L159.2,10.5L157.8,10.7L156.4,10.7L157.7,11.4L157.7,11.8L155.7,11.4L155.2,11.7L156.6,11.9L157.9,12.5L158.2,13.3L156.5,13.5L155.7,13.1L154.5,12.6L154.8,13.2L153.6,13.8L156.3,13.8L157.7,13.9L155.0,14.7L152.3,15.5L149.3,15.9L148.2,15.9L147.2,16.3L145.8,17.3L143.6,18.0L143.0,18.1L141.6,18.3L140.2,18.5L139.3,19.2L139.3,19.9L138.8,20.5L137.2,21.3L137.6,22.1L137.1,22.9L136.6,23.9L135.2,24.0L133.7,23.1L131.7,23.1L130.8,22.6L130.1,21.6L128.4,20.4L127.9,19.7L127.7,18.8L126.3,17.9L126.7,17.2L126.0,16.8L127.0,15.6L128.5,15.3L128.9,14.9L129.1,14.1L128.0,14.4L127.4,14.6L126.5,14.7L125.3,14.4L125.2,13.7L125.6,13.2L126.6,13.2L128.6,13.4L126.9,12.8L126.0,12.5L125.0,12.6L124.2,12.3L125.3,11.4L124.7,11.0L123.9,10.4L122.7,9.3L121.4,8.9L121.4,8.5L118.7,7.9L116.6,7.8L113.9,7.9L111.5,7.9L110.3,7.6L108.6,7.0L111.2,6.7L113.2,6.6L109.0,6.4L106.7,6.0L106.8,5.6L110.6,5.1L114.3,4.6L114.7,4.2L112.0,3.9L112.8,3.5L116.3,2.8L117.8,2.7L117.3,2.2L119.7,2.0L122.8,1.8L125.9,1.8L127.0,2.1L129.6,1.6L132.0,1.9L133.4,2.0L135.5,2.3L133.1,1.8L133.2,1.4L136.6,0.8L140.1,0.8L141.4,0.5L144.9,0.4L152.9,0.5Z"/></g></svg>